<?xml version="1.0" standalone="no"?>
<!DOCTYPE svg PUBLIC "-//W3C//DTD SVG 20010904//EN"
 "http://www.w3.org/TR/2001/REC-SVG-20010904/DTD/svg10.dtd">
<svg version="1.0" xmlns="http://www.w3.org/2000/svg"
 width="640.000000pt" height="640.000000pt" viewBox="0 0 640.000000 640.000000"
 preserveAspectRatio="xMidYMid meet">
<metadata>
Created by potrace 1.11, written by Peter Selinger 2001-2013
</metadata>
<g transform="translate(0.000000,640.000000) scale(0.100000,-0.100000)"
fill="#000000" stroke="none">
<path d="M2845 6392 c-117 -9 -408 -53 -432 -65 -15 -8 -64 -22 -108 -32 -72
-16 -164 -48 -265 -92 -19 -8 -45 -17 -58 -19 -66 -12 -405 -153 -527 -218
-111 -60 -273 -163 -331 -211 -104 -85 -330 -326 -469 -500 -127 -159 -302
-483 -313 -580 -3 -34 1 -47 22 -72 18 -22 33 -30 49 -28 12 2 42 6 67 9 77
10 109 23 203 84 143 92 270 156 412 207 72 26 144 53 160 60 40 17 63 23 110
30 22 3 54 10 70 15 17 6 74 12 128 15 53 3 112 7 130 10 37 7 180 86 218 121
27 26 119 54 159 50 14 -2 49 -8 78 -15 55 -14 135 -5 217 23 25 9 104 12 253
11 l217 -1 -2 -25 c0 -13 -10 -60 -21 -104 -11 -44 -26 -105 -32 -136 -15 -68
-19 -250 -7 -340 7 -59 4 -83 -27 -210 -47 -195 -47 -194 -51 -364 -5 -226 10
-291 94 -402 31 -40 36 -52 24 -55 -17 -3 -50 -90 -168 -439 -35 -102 -72
-203 -83 -225 -10 -21 -22 -55 -26 -74 -5 -32 -2 -40 33 -74 l39 -39 119 7
c65 3 136 9 158 12 31 4 46 1 63 -13 47 -40 30 -118 -60 -269 -47 -79 -50 -86
-43 -131 9 -60 29 -100 55 -108 11 -3 20 -12 20 -18 0 -19 -28 -68 -71 -124
-23 -29 -42 -60 -43 -70 -2 -10 9 -34 24 -53 15 -19 50 -70 77 -112 l51 -78
-14 -45 c-15 -53 -40 -91 -100 -156 -47 -52 -68 -88 -79 -139 -15 -67 -12
-183 7 -269 11 -48 15 -88 10 -93 -5 -5 -22 -11 -38 -14 -16 -2 -56 -12 -89
-20 -33 -8 -80 -17 -105 -20 -300 -33 -542 -21 -720 36 -30 9 -80 18 -110 19
-61 2 -220 47 -355 99 -49 19 -127 45 -171 57 -60 17 -116 44 -206 99 -69 42
-130 76 -136 76 -6 0 -26 13 -44 28 -52 44 -109 77 -162 95 -60 20 -82 21 -89
4 -6 -15 40 -136 80 -212 32 -61 155 -246 192 -288 76 -89 118 -133 242 -254
137 -134 255 -226 394 -308 99 -59 343 -181 377 -189 15 -3 65 -24 110 -45
209 -98 398 -141 398 -91 0 12 -7 20 -17 21 -10 0 -29 2 -43 4 -14 3 -41 7
-60 9 -47 7 -546 207 -639 257 -41 22 -110 65 -153 97 -43 31 -114 83 -158
115 -197 144 -416 372 -514 536 -99 167 -96 182 18 73 39 -38 91 -87 116 -110
25 -22 41 -44 37 -48 -4 -4 -22 7 -40 24 -18 18 -39 32 -47 32 -9 0 0 -14 20
-32 19 -17 55 -49 80 -72 74 -68 132 -111 194 -145 32 -17 77 -44 100 -59 22
-15 55 -34 71 -42 17 -8 48 -26 70 -41 116 -77 387 -199 507 -229 45 -12 49
-11 66 10 17 22 19 22 50 6 17 -9 49 -16 71 -16 63 0 137 -19 157 -41 9 -10
28 -19 42 -19 14 0 30 -7 36 -15 13 -18 196 -52 325 -60 187 -12 360 -14 390
-5 17 5 71 11 119 15 274 18 285 20 477 83 77 25 161 58 186 74 25 15 51 28
58 28 16 0 108 47 116 60 9 15 35 12 29 -4 -7 -18 -166 -127 -225 -155 -26
-12 -57 -34 -70 -48 l-24 -25 22 6 c13 4 55 27 95 50 40 24 99 59 131 77 81
47 121 87 105 106 -9 11 -9 16 3 24 18 11 36 11 43 0 4 -5 17 -6 29 -3 32 9
117 86 117 105 0 8 7 17 15 21 12 4 13 2 3 -14 -16 -25 -5 -35 21 -18 13 7 20
21 19 33 -2 15 3 20 19 20 12 0 42 17 67 38 25 20 48 37 51 37 4 0 20 11 37
25 16 14 36 25 44 25 8 0 46 30 84 68 38 37 117 112 176 167 152 142 181 174
188 206 3 19 12 29 28 31 16 2 24 11 26 29 2 21 10 28 35 34 l32 6 -22 16
c-27 18 -28 25 -7 69 19 40 35 45 28 9 -6 -33 10 -32 34 3 24 33 77 138 87
172 4 14 20 53 36 87 50 110 59 135 124 344 35 114 71 251 80 305 9 55 20 108
25 119 15 34 20 75 36 325 10 153 11 375 2 428 -5 27 -4 52 3 64 8 16 8 31 -2
62 -7 23 -13 55 -14 71 -1 17 -5 64 -8 105 l-7 75 25 -105 c14 -57 29 -108 34
-113 16 -16 33 4 27 32 -34 164 -58 267 -65 274 -17 17 -33 -5 -27 -37 4 -20
3 -26 -3 -16 -5 8 -16 53 -25 100 -29 146 -58 241 -72 236 -21 -8 -34 17 -19
37 11 16 9 32 -11 109 -13 50 -27 95 -31 102 -3 6 1 4 9 -4 9 -8 34 -66 57
-129 36 -99 47 -136 66 -221 28 -125 39 -155 56 -145 5 4 6 24 3 46 -5 28 -3
39 6 39 10 0 9 5 -3 18 -8 9 -20 30 -26 45 -10 25 -8 29 14 37 17 6 23 14 19
25 -5 12 -9 13 -21 4 -20 -17 -27 -6 -61 91 -57 161 -86 225 -111 245 -50 40
-70 64 -77 92 -8 37 -48 118 -108 220 -47 81 -62 100 -72 90 -7 -6 15 -49 73
-145 24 -40 43 -78 40 -85 -4 -12 -11 -1 -74 107 -26 45 -48 72 -108 136 -31
33 -47 75 -39 104 5 22 -13 51 -75 115 -7 8 -22 34 -32 58 -18 43 -24 47 -68
43 -20 -1 -23 2 -18 19 4 17 -1 22 -31 31 -21 5 -43 10 -50 10 -18 0 -72 29
-72 39 0 4 30 6 66 4 46 -4 64 -2 60 6 -4 6 -20 11 -35 11 -16 0 -47 7 -70 15
-23 8 -45 14 -49 14 -24 -1 -78 15 -103 30 -33 20 -29 34 6 21 30 -11 187 -41
192 -37 5 6 -37 57 -48 57 -5 0 -9 -7 -9 -15 0 -19 -6 -19 -88 4 -37 10 -80
16 -97 14 -36 -5 -101 24 -200 88 -38 26 -90 56 -115 69 -25 13 -87 47 -138
76 -51 30 -96 54 -99 54 -6 0 -54 20 -251 106 -19 8 -57 17 -85 20 -29 3 -72
11 -97 19 -25 7 -70 19 -100 25 -30 7 -82 21 -116 31 -70 22 -93 24 -154 16
-89 -13 -220 -17 -220 -8 0 16 34 31 85 37 28 4 45 12 45 20 0 18 -23 17 -81
0 -25 -8 -94 -21 -155 -30 -60 -9 -190 -37 -289 -62 -99 -25 -187 -47 -195
-49 -299 -71 -447 -115 -570 -172 -41 -19 -95 -41 -120 -49 -83 -26 -100 -56
-19 -33 72 20 119 27 119 18 0 -4 -19 -13 -42 -20 -141 -37 -185 -53 -211 -75
-16 -13 -41 -27 -55 -30 -15 -4 -52 -22 -83 -40 -31 -19 -60 -34 -65 -34 -4 0
-37 -20 -73 -44 -76 -50 -102 -64 -263 -140 -97 -45 -121 -61 -142 -93 -14
-21 -44 -56 -67 -78 -23 -22 -56 -63 -74 -91 -38 -58 -186 -214 -203 -214 -20
0 -13 72 12 120 12 25 43 82 69 127 26 45 53 97 60 115 19 46 156 219 290 368
62 69 122 136 133 150 46 58 223 218 313 282 89 63 181 111 336 173 72 29 160
67 196 84 58 27 244 81 282 81 8 0 34 15 58 34 41 32 162 73 264 90 17 2 86
16 155 30 140 29 220 37 430 40 133 1 172 -1 285 -19 22 -3 92 -9 155 -12 135
-6 327 -36 344 -53 8 -10 4 -11 -19 -6 -16 3 -56 9 -87 13 -50 5 -58 3 -58
-11 0 -9 8 -16 18 -16 33 -1 98 -11 167 -26 39 -9 88 -18 110 -20 77 -9 107
-14 125 -24 27 -14 100 -37 145 -45 22 -4 46 -12 53 -18 8 -6 35 -18 60 -27
26 -10 121 -70 212 -135 91 -66 201 -141 245 -168 44 -27 91 -59 105 -71 14
-12 43 -35 65 -51 22 -16 63 -50 90 -76 74 -70 93 -86 170 -144 157 -117 355
-360 355 -435 0 -12 15 -40 34 -63 18 -23 47 -67 64 -97 29 -53 108 -264 136
-365 31 -114 79 -262 93 -288 8 -16 15 -43 15 -60 0 -18 4 -36 8 -42 9 -11 19
-93 26 -192 2 -35 13 -100 24 -145 12 -45 24 -112 27 -148 2 -36 8 -78 12 -95
4 -16 9 -57 10 -90 1 -33 7 -78 12 -100 5 -22 7 -125 5 -230 -4 -175 -8 -228
-21 -310 -2 -16 -7 -66 -10 -110 -6 -71 -11 -117 -31 -260 -3 -22 -7 -51 -9
-65 -6 -53 -16 -88 -45 -175 -17 -49 -42 -133 -55 -185 -47 -184 -103 -313
-226 -522 -33 -55 -200 -300 -287 -418 -64 -88 -326 -352 -394 -398 -57 -39
-95 -55 -103 -42 -7 11 -34 2 -55 -19 -13 -13 -12 -14 13 -7 16 4 27 2 27 -3
0 -15 -36 -32 -53 -25 -9 3 -28 -3 -43 -13 -15 -10 -50 -27 -78 -38 -27 -11
-51 -26 -54 -33 -3 -11 3 -10 26 2 35 18 62 21 62 6 0 -12 -88 -64 -287 -167
-157 -82 -302 -138 -428 -168 -33 -8 -80 -21 -104 -29 -24 -9 -60 -16 -81 -16
-20 0 -63 -9 -96 -21 -42 -15 -87 -21 -159 -23 -55 -1 -105 -5 -111 -8 -6 -4
-26 -2 -46 4 -28 8 -42 7 -71 -7 -20 -9 -42 -15 -49 -12 -8 4 -7 6 5 6 36 2 9
31 -28 31 -8 0 -24 -10 -35 -22 -21 -22 -27 -23 -221 -23 -109 0 -199 -3 -199
-7 0 -18 79 -25 260 -23 107 2 209 5 225 8 17 3 95 8 175 11 80 4 156 8 170
11 14 3 52 7 84 10 174 14 385 84 635 208 221 111 312 160 366 199 22 16 71
51 108 78 37 27 89 61 115 76 53 31 172 129 186 153 6 9 19 23 30 33 12 9 37
31 56 48 19 18 45 39 58 47 12 9 51 54 85 102 34 47 67 93 74 101 7 8 23 29
35 46 13 18 43 58 69 90 52 67 181 278 229 374 18 36 42 83 53 105 31 63 154
445 162 505 4 30 16 77 26 103 20 49 24 71 33 182 3 33 10 94 15 135 6 41 13
98 16 125 10 81 16 119 22 140 7 25 17 284 16 425 -1 81 -6 120 -23 170 -12
36 -23 92 -25 125 -5 119 -17 187 -37 207 -16 16 -20 37 -23 118 -2 54 -8 107
-14 118 -5 10 -20 63 -32 118 -12 54 -34 138 -50 186 -15 48 -35 120 -43 161
-16 77 -25 101 -93 247 -22 47 -47 106 -57 132 -38 104 -216 371 -300 452 -28
27 -95 91 -149 143 -54 52 -121 108 -150 125 -54 31 -113 75 -157 116 -14 13
-56 44 -95 69 -38 25 -88 58 -110 73 -391 267 -413 279 -610 343 -313 101
-381 119 -490 133 -22 3 -49 7 -60 9 -11 2 -63 7 -115 10 -52 4 -120 9 -150
11 -67 6 -379 11 -435 6z m-25 -556 c-8 -8 -41 -17 -75 -20 -149 -13 -155 -14
-295 -56 -110 -33 -253 -66 -325 -76 -27 -3 -53 -8 -57 -11 -5 -2 -8 -1 -8 2
0 15 95 46 148 49 31 2 113 20 182 41 139 41 126 38 230 59 75 15 99 19 175
24 36 3 38 1 25 -12z m435 -36 c4 -6 -12 -10 -39 -10 -25 0 -46 5 -46 10 0 6
18 10 39 10 22 0 43 -4 46 -10z m-251 -65 c-19 -14 -54 -20 -54 -10 0 8 64 34
69 29 3 -2 -4 -11 -15 -19z m-234 6 c0 -17 -19 -24 -100 -38 -45 -8 -37 0 25
26 56 22 75 25 75 12z m404 -42 c5 -5 -5 -4 -23 1 -18 5 -50 7 -72 5 -47 -4
-60 10 -22 23 27 9 93 -7 117 -29z m457 7 c19 -7 43 -16 53 -20 10 -3 17 -9
14 -11 -5 -5 -128 34 -128 41 0 8 28 4 61 -10z m-685 -7 c32 -6 68 -16 79 -22
19 -10 19 -11 -5 -17 -14 -4 -36 -3 -50 2 -30 11 -106 0 -92 -14 5 -5 47 -15
93 -21 63 -9 84 -16 84 -27 0 -11 -15 -16 -65 -18 -36 -2 -69 -7 -75 -13 -5
-6 -4 -9 5 -10 8 0 24 -2 35 -4 60 -12 166 -11 176 1 8 10 4 13 -17 16 -34 4
-42 24 -13 33 15 5 25 2 31 -8 6 -11 15 -14 29 -8 22 8 140 -12 175 -30 12 -6
35 -8 51 -5 22 5 36 2 54 -13 36 -29 7 -36 -77 -16 -78 18 -193 31 -182 20 6
-6 56 -20 117 -31 13 -3 39 -16 58 -29 32 -21 38 -22 57 -10 12 8 37 12 59 10
39 -4 51 9 16 18 -12 3 -19 11 -16 19 7 22 56 11 93 -22 32 -28 40 -30 78 -25
36 6 50 2 93 -23 51 -31 66 -32 56 -6 -6 16 33 19 57 4 12 -8 13 -13 3 -30 -7
-11 -13 -27 -13 -35 0 -8 -7 -15 -15 -15 -8 0 -15 6 -15 13 0 6 -10 17 -23 22
-12 6 -41 22 -65 35 -36 20 -46 22 -62 12 -11 -7 -40 -12 -65 -12 -25 0 -45
-3 -45 -7 0 -13 74 -83 87 -83 20 0 15 16 -9 34 -23 16 -22 16 17 12 22 -3 50
-5 62 -6 13 0 24 -8 28 -20 8 -25 24 -26 41 -2 11 14 13 14 14 2 0 -8 18 -34
39 -57 30 -33 46 -43 70 -43 17 0 31 5 31 10 0 6 -4 10 -9 10 -12 0 -26 39
-22 63 1 9 -3 17 -8 17 -17 0 -13 18 8 39 20 20 20 20 26 -1 4 -11 2 -25 -4
-31 -16 -16 -14 -57 4 -57 8 0 15 8 15 18 0 29 11 33 40 15 27 -15 27 -16 11
-44 -9 -16 -21 -29 -28 -29 -21 0 -25 -21 -7 -41 18 -20 44 -26 44 -10 0 6 -5
13 -12 17 -7 4 2 13 23 23 31 15 34 20 34 58 0 82 32 35 39 -57 2 -19 7 -44
11 -54 9 -20 -1 -20 -47 -1 -32 13 -19 -14 14 -31 25 -13 36 -14 51 -5 34 22
96 -6 207 -95 36 -28 99 -75 140 -104 41 -29 100 -75 131 -101 59 -51 79 -59
79 -34 0 8 -9 15 -20 15 -10 0 -48 26 -82 58 -77 71 -166 142 -180 142 -19 0
-88 93 -88 120 0 8 8 2 18 -15 24 -39 37 -49 97 -71 36 -13 72 -40 127 -94 42
-42 93 -88 115 -102 64 -45 121 -48 78 -4 -16 16 -20 36 -6 36 8 0 61 -73 61
-84 0 -3 12 -31 26 -63 15 -31 37 -86 51 -122 13 -35 35 -83 48 -106 14 -23
42 -95 64 -161 46 -140 100 -274 112 -274 5 0 -1 24 -12 53 -12 28 -39 102
-61 162 -21 61 -57 156 -79 213 -42 109 -47 151 -11 92 12 -19 23 -39 25 -45
2 -6 10 -5 19 3 13 10 17 7 29 -20 7 -18 37 -55 66 -83 48 -45 57 -60 88 -154
19 -57 35 -109 35 -117 0 -19 40 -108 46 -102 2 3 -2 24 -9 47 -8 22 -11 41
-7 41 15 0 32 -69 25 -101 -4 -18 -3 -34 3 -38 9 -6 46 -133 62 -213 8 -41 -3
-52 -15 -15 -5 17 -8 18 -12 6 -2 -9 7 -46 21 -83 19 -50 24 -78 20 -110 -4
-27 -2 -46 5 -50 6 -4 11 0 12 11 0 16 2 15 15 -4 12 -16 16 -52 18 -135 1
-88 6 -121 20 -150 18 -34 18 -39 2 -77 -23 -58 -22 -169 2 -187 16 -12 16
-13 0 -14 -9 0 -20 -9 -23 -21 -8 -26 3 -38 16 -19 20 28 1 -248 -21 -325 -11
-38 -20 -91 -18 -117 1 -33 -3 -53 -15 -66 -24 -26 -22 -61 5 -71 l21 -8 -21
-21 c-12 -12 -29 -22 -37 -22 -16 0 -45 -49 -45 -77 0 -10 -11 -45 -25 -78
-25 -62 -32 -115 -15 -115 6 0 10 8 10 18 1 19 29 73 30 57 1 -5 3 -19 5 -29
2 -11 -3 -31 -10 -45 -8 -15 -21 -43 -29 -64 -8 -20 -20 -37 -25 -37 -7 0 -7
8 -1 26 14 36 12 46 -7 42 -10 -2 -18 -12 -19 -23 -1 -11 -15 -42 -33 -69 -17
-28 -31 -55 -31 -62 0 -6 -7 -17 -16 -25 -12 -10 -11 -1 6 42 32 79 35 93 21
85 -14 -9 -46 -71 -54 -107 -8 -32 -46 -81 -57 -74 -5 3 -28 -20 -52 -52 -23
-32 -76 -96 -118 -143 -41 -47 -86 -98 -100 -115 -135 -159 -438 -462 -525
-526 -41 -30 -75 -57 -75 -61 0 -5 14 -8 31 -8 27 0 30 -2 19 -15 -7 -8 -24
-15 -39 -15 -17 0 -36 -11 -54 -31 -23 -27 -32 -30 -58 -25 -18 3 -40 6 -51 6
-33 0 -4 25 58 51 61 26 74 45 16 25 -79 -28 -144 -67 -138 -82 4 -10 -6 -22
-29 -35 -19 -12 -35 -24 -35 -29 0 -4 -35 -24 -77 -44 -82 -39 -112 -55 -134
-73 -8 -5 -52 -25 -99 -43 -47 -18 -91 -35 -97 -37 -7 -3 -13 2 -13 11 0 20
-29 21 -90 2 -33 -10 -84 -12 -191 -8 -80 2 -149 1 -152 -4 -3 -5 18 -11 46
-13 29 -2 63 -5 77 -6 14 -2 33 -3 43 -4 10 -1 15 -6 12 -12 -9 -14 -407 3
-610 26 -22 3 -62 7 -90 10 -94 10 -342 59 -352 69 -9 8 7 25 20 21 7 -2 28
-6 47 -9 19 -3 46 -8 60 -11 86 -17 166 -29 280 -41 36 -3 73 -8 83 -9 16 -4
107 -11 230 -20 32 -2 57 0 57 5 0 6 -18 10 -40 10 -22 0 -40 4 -40 9 0 4 63
7 140 6 77 -2 142 1 145 5 8 13 -16 18 -100 20 -44 1 -93 3 -110 5 -16 2 -42
3 -58 4 -15 1 -35 10 -45 21 -22 27 -96 47 -197 55 -112 9 -185 15 -220 20
-30 4 -125 18 -135 20 -3 1 -30 5 -60 9 -77 11 -90 15 -90 33 0 13 12 14 90 9
49 -4 100 -9 112 -11 111 -18 385 -28 393 -15 3 6 -4 10 -17 11 -13 1 -34 2
-48 4 -14 1 -77 5 -140 9 -63 4 -117 9 -120 11 -10 6 -144 17 -239 20 -116 2
-301 50 -301 77 0 12 10 10 81 -11 71 -22 103 -28 202 -36 37 -4 78 -8 90 -11
22 -5 45 -6 252 -20 204 -13 295 -12 295 6 0 7 -24 8 -216 15 -157 6 -279 16
-288 26 -6 5 79 9 204 9 118 0 218 4 223 9 16 16 -2 32 -23 21 -10 -5 -31 -10
-45 -10 -24 0 -25 2 -11 15 8 8 30 18 48 22 71 13 176 43 242 68 80 30 126 33
176 12 78 -33 228 -44 299 -21 24 8 57 14 75 13 34 -3 74 16 150 68 38 26 58
33 96 33 42 0 51 4 69 29 12 16 35 32 51 36 16 3 59 26 96 50 37 25 84 50 103
56 20 6 42 12 50 15 11 4 11 7 0 20 -12 14 -10 19 10 33 13 9 38 31 55 49 42
45 64 56 81 42 12 -10 9 -19 -18 -53 -18 -23 -43 -51 -57 -63 -22 -20 -23 -26
-13 -43 11 -17 9 -22 -9 -35 -27 -19 -18 -31 15 -20 22 8 168 138 312 279 74
73 208 239 240 296 27 51 29 76 2 42 -9 -10 -46 -56 -83 -103 -112 -141 -290
-327 -302 -316 -3 4 10 23 29 44 68 72 129 151 209 267 44 64 80 119 80 121 0
7 81 115 107 144 36 39 54 118 33 150 -7 12 -12 7 -25 -22 -8 -21 -15 -49 -15
-63 0 -15 -12 -35 -31 -52 -17 -16 -42 -50 -56 -78 -29 -56 -146 -232 -189
-284 -71 -85 -146 -171 -150 -171 -14 0 0 32 24 56 31 31 112 150 156 226 14
26 33 51 41 55 23 13 105 124 99 134 -8 14 -22 2 -55 -49 -37 -57 -34 -35 12
91 31 87 48 99 49 36 0 -14 3 -29 7 -33 17 -17 103 166 103 221 0 37 -14 19
-35 -44 -18 -59 -39 -81 -30 -35 10 58 37 117 64 142 16 15 39 57 55 100 16
41 48 120 72 175 49 113 53 130 58 200 6 101 30 231 46 255 32 48 112 220 108
232 -5 13 -14 0 -62 -84 -15 -27 -31 -48 -36 -48 -16 0 -12 33 9 70 10 19 38
73 62 120 25 47 54 98 64 114 13 20 15 28 6 25 -8 -3 -35 -39 -60 -81 -25 -42
-50 -80 -55 -85 -16 -15 2 53 33 121 17 37 31 70 31 74 0 11 -60 -60 -75 -88
-15 -31 -43 -156 -50 -233 -4 -32 -8 -68 -11 -80 -2 -12 -11 -67 -19 -121 -8
-55 -18 -102 -21 -105 -6 -7 4 167 11 178 2 4 7 36 10 72 4 35 20 141 37 234
40 231 42 245 29 245 -12 0 -12 -1 -46 -180 -3 -14 -9 -47 -14 -75 -11 -52
-16 -86 -26 -170 -4 -27 -8 -57 -10 -65 -2 -8 -7 -35 -10 -60 -4 -25 -10 -63
-15 -85 -5 -22 -10 -55 -10 -73 0 -20 -4 -31 -10 -27 -6 4 -8 9 -6 13 2 4 7
41 10 82 4 41 9 86 12 100 2 14 6 54 9 90 7 88 23 210 40 295 8 39 16 81 19
95 3 14 14 61 25 104 23 87 26 126 11 126 -11 0 -13 -9 -35 -120 -18 -93 -20
-105 -33 -155 -6 -22 -14 -53 -17 -70 -21 -115 -34 -198 -40 -250 -4 -33 -11
-64 -17 -70 -9 -10 -7 44 7 175 5 45 52 292 71 375 5 22 21 104 28 148 5 30
-7 76 -16 61 -6 -9 -23 -91 -33 -154 -27 -177 -59 -310 -74 -310 -10 0 -7 35
9 110 5 25 14 72 19 105 15 90 26 142 47 233 16 74 17 92 5 92 -6 0 -12 -21
-16 -47 -3 -27 -10 -64 -15 -84 -8 -30 -17 -75 -44 -226 -1 -7 -6 -16 -10 -20
-5 -4 -5 19 -2 52 7 59 9 71 21 150 3 22 8 64 10 93 2 29 11 80 20 113 8 34
13 65 9 70 -11 18 -34 9 -34 -13 0 -33 -11 -68 -19 -63 -4 2 -5 26 -2 52 7 60
3 113 -10 113 -9 0 -10 -15 -13 -152 -2 -73 5 -95 18 -65 3 6 3 -24 0 -67 -5
-83 -20 -176 -30 -185 -6 -6 2 102 12 164 4 26 2 40 -8 46 -9 6 -13 35 -14 97
0 67 -5 96 -19 119 -16 28 -17 37 -6 73 12 41 7 67 -8 42 -15 -25 -91 73 -121
156 -15 42 -51 126 -80 186 -58 122 -112 185 -215 250 -33 21 -69 46 -80 56
-11 9 -40 25 -65 34 l-45 18 19 -21 c10 -11 28 -23 40 -27 11 -4 34 -18 50
-31 16 -13 50 -35 75 -48 58 -29 108 -82 154 -162 45 -78 99 -194 93 -200 -2
-3 -20 19 -39 49 -18 29 -54 71 -78 92 -24 21 -75 69 -114 105 -38 36 -94 86
-123 109 -28 24 -55 55 -58 68 -4 17 -13 24 -29 24 -12 0 -28 7 -35 15 -6 7
-35 27 -63 44 -115 66 -147 116 -41 63 73 -36 104 -46 104 -33 0 5 -24 21 -52
36 -29 14 -69 34 -88 45 -19 10 -40 17 -46 15 -6 -2 -17 2 -24 8 -10 10 -11 5
-7 -20 4 -18 4 -33 0 -33 -3 0 -27 13 -52 29 -25 16 -63 32 -84 35 -20 4 -53
21 -72 37 -19 17 -39 28 -45 24 -10 -6 -229 60 -408 122 -46 16 -84 23 -105
20 -17 -3 -66 -11 -107 -18 -105 -19 -436 -17 -424 2 3 6 29 20 57 33 28 12
47 25 42 28 -10 6 -84 -16 -170 -50 -27 -11 -74 -30 -104 -42 -68 -27 -156
-28 -208 -3 -43 20 -131 20 -192 -1 -20 -7 -44 -12 -53 -10 -12 1 -18 -4 -18
-17 0 -31 -49 -78 -89 -85 -20 -4 -52 -18 -72 -31 -37 -24 -149 -45 -149 -27
0 5 25 20 55 33 77 33 62 37 -21 6 -117 -44 -185 -64 -263 -76 -75 -11 -124
-21 -168 -34 -38 -12 -26 8 22 37 25 15 45 32 45 38 0 15 -5 13 -47 -16 -21
-14 -60 -37 -88 -51 -27 -14 -96 -56 -153 -94 -56 -38 -119 -76 -140 -85 -20
-10 -41 -20 -47 -22 -36 -18 54 59 120 102 44 29 114 74 155 101 41 27 95 60
120 73 60 30 94 57 89 70 -4 10 -119 -55 -245 -139 -38 -26 -89 -57 -114 -69
-24 -13 -80 -47 -124 -77 -76 -52 -107 -63 -72 -24 10 11 28 22 40 25 12 3 28
17 36 31 12 22 108 105 122 105 3 0 36 20 72 45 37 25 73 45 79 45 6 0 33 15
61 34 58 38 177 109 245 146 25 14 62 37 81 52 57 44 195 98 262 103 23 2 68
21 114 49 74 43 77 44 101 28 25 -16 25 -16 5 -31 -11 -9 -28 -22 -38 -28 -11
-7 -1 -6 21 3 22 8 51 26 65 39 14 13 56 34 94 45 75 24 155 75 156 101 0 25
11 29 32 15 26 -18 83 -11 116 14 21 17 27 18 41 7 20 -18 83 -16 89 1 3 10
-3 13 -21 10 -15 -1 -27 1 -29 7 -2 5 10 11 26 12 16 1 35 4 42 7 14 5 44 -19
44 -35 0 -5 -6 -11 -12 -13 -24 -7 -193 -38 -223 -41 -42 -4 -64 -14 -75 -36
-16 -29 2 -30 85 -4 43 14 90 27 104 30 198 38 231 47 241 66 9 16 40 30 100
43 24 5 24 4 6 -9 -11 -8 -26 -15 -33 -15 -7 0 -13 -4 -13 -9 0 -12 26 -7 93
15 35 12 45 19 36 25 -20 12 13 12 87 -2z m-640 -44 c-23 -17 -36 -19 -36 -6
0 11 18 19 40 20 11 0 10 -3 -4 -14z m855 0 c9 -2 22 1 30 5 8 6 19 4 29 -5 8
-8 48 -16 88 -20 85 -7 182 -39 182 -61 0 -12 -4 -12 -20 -4 -12 6 -62 18
-113 26 -51 8 -137 21 -192 30 -55 9 -102 18 -105 20 -2 3 2 9 10 15 13 8 31
7 91 -6z m317 -7 c-3 -7 -11 -13 -18 -13 -7 0 -15 6 -17 13 -3 7 4 12 17 12
13 0 20 -5 18 -12z m-1508 -7 c0 -8 -55 -25 -115 -35 -16 -2 -39 -8 -50 -12
-16 -5 -18 -4 -8 6 11 12 123 48 156 49 9 1 17 -3 17 -8z m1608 -46 c-8 -18
-14 -22 -22 -15 -8 8 -6 15 8 26 26 19 27 18 14 -11z m-1488 -34 c0 -11 -146
-64 -162 -59 -24 9 44 37 160 67 1 1 2 -3 2 -8z m1614 -37 c31 -14 56 -30 56
-35 0 -10 -41 5 -105 39 -57 30 -18 27 49 -4z m-74 -14 c13 -8 13 -10 -2 -10
-9 0 -20 5 -23 10 -8 13 5 13 25 0z m620 -108 c25 -16 104 -59 175 -96 72 -37
155 -87 185 -110 30 -24 75 -55 100 -69 57 -34 230 -191 230 -209 0 -18 -46 4
-72 35 -38 46 -47 55 -103 98 -151 115 -255 185 -352 236 -59 31 -130 72 -158
91 -27 19 -61 38 -75 44 -38 14 -150 82 -150 91 0 8 148 -67 220 -111z m-112
-20 c2 -7 -2 -10 -12 -6 -9 3 -16 11 -16 16 0 13 23 5 28 -10z m-2817 -76
c-14 -16 -51 -28 -51 -16 0 5 12 13 28 18 36 14 36 14 23 -2z m2854 -16 c3 -5
0 -10 -8 -10 -8 0 -18 -12 -21 -27 -7 -25 -8 -25 -24 -9 -16 16 -15 18 8 36
29 22 36 24 45 10z m65 -42 c0 -13 -23 -5 -28 10 -2 7 2 10 12 6 9 -3 16 -11
16 -16z m162 -36 c-13 -4 -62 26 -62 39 0 4 16 -1 37 -13 20 -12 31 -24 25
-26z m-1277 2 c6 -6 46 -20 90 -29 115 -25 265 -79 375 -134 52 -26 123 -58
157 -70 34 -13 92 -43 129 -67 37 -24 72 -44 78 -44 6 0 21 -16 34 -36 12 -19
27 -32 31 -29 5 3 7 -3 4 -14 -3 -13 7 -26 37 -47 52 -36 135 -103 174 -141
58 -56 75 -104 23 -63 -45 35 -50 21 -10 -27 55 -67 61 -78 27 -57 -16 10 -34
25 -40 34 -7 8 -24 28 -40 45 -23 25 -25 31 -11 33 26 5 21 18 -19 49 -19 15
-47 38 -62 50 -14 12 -41 30 -59 40 -18 10 -36 26 -39 35 -10 33 -27 19 -20
-17 6 -28 4 -34 -8 -29 -12 5 -26 25 -30 44 -6 24 -31 41 -91 57 -38 11 -124
37 -190 58 -173 53 -237 65 -340 61 -101 -4 -190 -26 -250 -60 -22 -13 -51
-26 -66 -29 -14 -4 -62 -31 -108 -62 -45 -30 -86 -55 -92 -55 -9 0 -11 10 -11
50 0 11 0 24 1 29 1 5 31 28 68 52 38 23 62 44 56 46 -7 3 -25 -4 -40 -15 -44
-30 -65 -35 -61 -15 2 10 22 28 46 41 46 26 58 47 16 32 -14 -6 -35 -10 -46
-10 -18 0 -19 4 -13 38 4 20 9 53 11 72 5 52 13 80 36 127 19 38 27 43 87 62
104 32 137 31 166 -5z m-1917 14 c12 -12 -1 -38 -21 -38 -5 0 -35 -17 -66 -38
-52 -35 -109 -62 -134 -62 -14 0 185 149 199 150 5 0 15 -5 22 -12z m3185 -74
c-3 -8 -9 -14 -13 -14 -13 0 -22 19 -15 30 9 14 34 0 28 -16z m59 -16 c-13
-26 -17 -29 -20 -15 -5 26 5 47 22 47 12 0 12 -5 -2 -32z m-3605 -53 c-24 -22
-57 -33 -57 -21 0 7 64 46 75 46 6 -1 -3 -12 -18 -25z m3704 -23 c5 -12 5 -22
1 -22 -15 0 -52 41 -52 57 0 14 3 14 22 1 11 -8 25 -24 29 -36z m31 -4 c-9 -9
-12 -7 -12 12 0 19 3 21 12 12 9 -9 9 -15 0 -24z m76 -59 c-2 -6 -8 -10 -13
-10 -5 0 -11 4 -13 10 -2 6 4 11 13 11 9 0 15 -5 13 -11z m-3553 -59 c-10 -11
-21 -17 -24 -14 -3 3 3 12 13 20 28 20 32 17 11 -6z m2265 -66 l25 -7 -30 -13
c-16 -7 -41 -13 -55 -13 -24 0 -24 0 -6 14 19 14 18 15 -13 15 -18 0 -30 4
-26 9 5 9 57 7 105 -5z m106 -4 c8 0 14 -4 14 -10 0 -11 -40 -13 -65 -4 -13 5
-14 8 -3 15 7 5 19 7 26 4 8 -3 20 -5 28 -5z m-2806 -30 c-33 -26 -52 -25 -21
0 13 11 28 20 35 20 6 0 0 -9 -14 -20z m2570 10 c0 -11 -48 -25 -57 -16 -3 3
5 10 18 15 32 13 39 13 39 1z m1636 -52 c15 -29 13 -58 -4 -58 -11 0 -52 82
-46 91 9 14 35 -3 50 -33z m-1732 22 c-11 -11 -104 -25 -104 -15 0 10 44 24
80 24 22 1 31 -2 24 -9z m209 -20 c-6 -24 -1 -25 37 -5 27 14 30 14 49 -11 17
-21 24 -24 35 -15 8 7 25 10 38 7 12 -3 37 -7 53 -10 17 -2 54 -10 83 -16 30
-7 68 -10 85 -7 25 4 36 0 52 -19 11 -14 61 -42 112 -64 92 -39 222 -123 231
-148 6 -18 -43 7 -87 44 -35 29 -56 25 -25 -6 46 -45 174 -130 196 -130 17 0
107 -86 108 -102 0 -16 -20 -7 -30 12 -14 26 -30 26 -23 0 6 -22 53 -60 73
-60 8 0 10 8 7 21 -4 15 -1 19 11 17 9 -2 31 -30 48 -63 21 -41 36 -59 47 -57
10 2 17 -4 17 -13 0 -8 9 -24 20 -35 24 -24 25 -39 5 -46 -10 -4 -12 -11 -6
-22 9 -18 8 -36 -10 -125 -11 -54 -6 -92 6 -51 4 10 11 27 16 36 5 10 14 50
20 90 12 77 26 124 30 98 5 -45 3 -126 -4 -131 -5 -3 -11 -24 -14 -46 -4 -29
-1 -44 12 -57 14 -14 15 -22 6 -44 -6 -15 -12 -39 -15 -53 -7 -44 -77 -272
-97 -314 -27 -60 -79 -194 -79 -205 0 -6 3 -10 8 -10 8 0 31 52 78 180 37 99
82 218 116 308 11 28 25 52 30 52 6 0 7 -8 3 -17 -4 -10 -9 -29 -11 -42 -3
-13 -13 -49 -24 -80 -10 -31 -23 -74 -29 -96 -17 -66 11 -19 54 92 39 99 55
130 55 102 0 -19 -30 -104 -91 -260 -51 -131 -55 -149 -40 -149 5 0 35 65 67
145 31 80 60 145 65 145 4 0 6 -8 4 -18 -6 -31 -92 -276 -113 -323 -12 -25
-31 -70 -42 -100 -12 -29 -32 -76 -44 -104 -28 -61 -39 -95 -31 -95 8 0 91
179 130 280 18 47 42 105 54 130 11 25 27 63 34 84 14 40 46 68 34 30 -28 -95
-200 -552 -224 -598 -18 -34 -24 -64 -13 -71 4 -3 17 19 29 48 12 28 27 63 33
77 6 14 15 34 19 45 5 11 25 67 45 124 44 128 81 204 97 198 7 -3 10 -11 8
-18 -2 -8 -6 -27 -9 -44 -2 -16 -9 -35 -14 -42 -6 -7 -14 -27 -18 -45 -13 -49
-85 -236 -113 -293 -14 -27 -23 -52 -21 -54 13 -14 57 60 96 163 28 71 54 90
33 24 -17 -55 -76 -217 -104 -285 -29 -73 -9 -67 26 7 15 33 34 60 42 60 9 0
11 -6 6 -17 -4 -10 -11 -33 -15 -52 -5 -18 -20 -55 -34 -82 -27 -52 -24 -59
12 -33 20 14 19 8 -14 -63 -19 -43 -39 -82 -45 -87 -5 -6 -9 -17 -9 -25 1 -27
40 27 78 107 19 40 37 71 40 68 4 -5 -67 -172 -115 -267 -13 -26 -23 -51 -23
-55 0 -17 22 15 50 72 26 54 29 56 29 29 1 -36 -48 -157 -107 -265 -23 -41
-73 -138 -111 -216 -38 -77 -82 -155 -97 -173 -14 -17 -24 -34 -22 -36 7 -8
62 65 98 130 18 33 43 76 54 95 12 19 39 70 61 114 24 48 48 82 61 87 12 4 24
14 27 21 4 10 6 9 6 -2 1 -8 -9 -31 -22 -49 -63 -97 -128 -222 -121 -233 8
-12 -29 -67 -76 -112 -22 -21 -40 -42 -40 -46 0 -4 -18 -30 -40 -56 -23 -28
-39 -56 -36 -66 3 -12 -5 -20 -26 -27 -30 -11 -30 -11 -24 20 3 17 2 28 -3 24
-13 -7 -91 -123 -91 -133 0 -16 -81 -102 -96 -102 -12 0 -11 7 5 37 11 21 27
47 35 58 9 11 29 39 44 62 15 23 61 92 103 155 91 136 142 225 137 239 -2 5
-21 -21 -43 -58 -93 -163 -377 -563 -398 -563 -6 0 -23 -12 -38 -26 l-27 -26
-16 31 c-9 17 -16 33 -16 36 1 22 -3 27 -25 35 -14 5 -25 14 -25 20 0 16 -41
-7 -67 -38 -21 -25 -24 -25 -39 -11 -15 15 -12 23 41 98 31 44 52 81 47 81 -5
0 -18 -12 -27 -27 -17 -26 -93 -120 -122 -151 -9 -9 -10 -18 -2 -30 13 -21
-20 -130 -44 -143 -29 -17 -97 -22 -302 -24 -162 -2 -220 -6 -252 -18 -46 -17
-69 -6 -37 18 28 21 79 28 142 20 119 -16 327 -7 400 16 38 12 33 32 -6 24
-71 -14 -234 -20 -464 -16 l-77 1 -26 43 c-40 69 -33 164 19 243 12 17 39 61
61 98 l40 67 68 -4 c37 -2 70 -1 72 3 3 4 -22 13 -55 20 -63 13 -69 20 -65 64
2 16 -1 39 -6 53 -6 17 -5 25 4 28 29 9 113 12 128 4 11 -5 28 -4 45 5 16 7
40 18 54 24 20 8 9 9 -50 4 -145 -12 -187 -9 -210 16 -11 12 -17 22 -13 23 4
0 24 2 43 4 19 2 71 6 115 9 44 3 91 8 105 10 14 3 43 7 65 11 45 6 72 25 36
25 -12 0 -19 4 -16 10 3 6 15 10 26 10 18 0 25 11 14 22 -7 7 -143 -20 -163
-32 -13 -8 -7 -9 23 -5 60 8 31 -12 -35 -25 -60 -12 -197 -14 -224 -4 -15 6
-15 8 -1 30 8 13 14 24 13 25 -2 0 -11 2 -21 4 -27 5 -34 15 -11 16 10 0 57 2
102 3 46 2 78 0 71 -5 -7 -4 -16 -6 -20 -3 -4 2 -11 -1 -15 -7 -8 -14 83 -7
194 15 82 16 93 21 63 31 -12 3 -21 10 -21 13 0 18 66 84 101 102 21 11 51 36
66 56 15 20 51 61 78 91 57 63 92 113 77 113 -10 0 -80 -73 -120 -124 -12 -16
-25 -27 -28 -24 -8 9 50 88 97 133 49 47 87 101 129 181 33 65 33 64 22 64 -4
0 -18 -20 -31 -46 -13 -25 -33 -50 -43 -55 -10 -6 -16 -14 -14 -18 3 -4 -9
-26 -27 -47 -19 -21 -47 -60 -64 -85 -17 -25 -49 -61 -71 -81 -40 -36 -41 -36
-80 -23 -22 8 -56 23 -75 34 -63 35 -160 55 -190 39 -25 -13 -142 -38 -179
-38 -32 0 -38 23 -13 50 8 9 26 44 39 77 13 33 41 86 62 119 21 32 44 71 51
87 7 15 19 27 28 27 8 0 20 11 25 24 6 16 19 26 44 30 29 6 40 16 65 59 47 83
60 131 49 179 -5 24 -7 52 -3 63 13 46 17 143 6 149 -6 4 -12 0 -13 -11 0 -10
-2 -27 -3 -38 -1 -11 -3 -31 -4 -45 -4 -50 -19 12 -19 78 0 35 -2 66 -6 69
-15 16 -20 -17 -19 -130 1 -109 -2 -127 -22 -168 -29 -56 -38 -64 -95 -80 -25
-7 -49 -16 -55 -21 -14 -13 72 1 114 18 39 16 51 18 51 5 0 -5 -17 -16 -37
-24 -34 -13 -61 -19 -153 -32 -14 -2 -54 -9 -90 -15 -125 -20 -212 -20 -178 1
10 7 9 9 -4 9 -9 0 -23 -7 -32 -15 -37 -37 -106 3 -106 63 0 42 64 216 117
316 20 38 36 81 35 95 0 19 8 31 29 43 23 13 29 24 29 50 0 18 9 51 19 73 17
35 19 37 20 15 1 -19 7 -25 26 -26 19 -2 25 3 25 17 0 22 32 39 38 21 6 -20
19 -13 26 13 6 22 10 24 34 19 15 -4 32 -11 39 -16 6 -5 21 -8 32 -6 10 2 30
-7 43 -18 12 -12 42 -24 66 -28 42 -6 52 0 31 21 -7 7 10 9 58 7 81 -3 135 6
141 25 3 10 -1 12 -17 8 -12 -3 -21 0 -21 6 0 6 -10 21 -22 34 l-22 23 35 -3
c19 -2 33 -8 32 -14 -4 -18 56 -33 100 -26 26 4 38 3 34 -4 -4 -6 -25 -13 -47
-17 -61 -10 -48 -24 15 -15 37 5 65 16 86 33 17 14 36 26 42 27 12 1 16 1 78
14 25 4 30 3 19 -4 -16 -12 -18 -11 40 -14 22 -2 25 -6 22 -32 -3 -25 -2 -27
11 -17 8 7 20 26 27 42 13 31 35 45 46 29 3 -5 2 -15 -4 -22 -5 -7 -12 -21
-15 -32 -6 -19 -6 -19 6 -1 7 11 25 34 41 53 23 27 34 33 53 28 15 -3 33 2 53
17 34 24 39 39 13 33 -84 -18 -85 -16 -8 23 74 37 109 61 173 120 14 12 27 20
30 17 3 -3 -20 -28 -52 -57 -32 -28 -62 -62 -67 -74 -5 -16 -14 -22 -24 -18
-18 7 -19 3 -1 -30 l13 -26 15 22 c8 13 18 33 22 46 4 12 25 34 46 47 20 13
54 41 75 62 33 34 36 35 30 13 -10 -33 -24 -50 -52 -61 -28 -11 -30 -35 -3
-44 31 -10 28 -25 -56 -244 -14 -35 -23 -65 -21 -67 5 -5 72 132 106 220 16
39 32 93 35 120 4 27 10 54 14 60 12 19 13 48 2 61 -8 9 -3 21 16 44 36 43 23
51 -21 12 -20 -17 -44 -31 -54 -31 -11 0 -31 -13 -44 -30 -24 -28 -45 -42 -32
-20 9 15 -1 12 -62 -15 -30 -14 -78 -31 -106 -37 -52 -12 -52 -12 -18 -18 45
-7 54 -30 12 -30 -18 0 -48 -7 -69 -16 -68 -28 -218 -67 -352 -90 -49 -8 -311
-11 -398 -4 -40 3 -79 2 -85 -2 -8 -5 -6 -8 6 -9 9 -1 20 -3 25 -4 4 -1 26 -5
50 -10 23 -4 42 -11 42 -15 0 -10 -151 17 -164 30 -7 7 -6 10 2 10 7 0 12 5
12 10 0 14 -27 13 -32 -1 -2 -7 -13 -9 -28 -4 -22 7 -22 8 -4 18 27 15 34 29
22 44 -13 16 -45 17 -50 2 -3 -9 -17 -8 -55 1 -29 8 -50 17 -47 21 2 4 -14 28
-36 54 -24 27 -40 56 -40 71 0 22 8 17 69 -46 38 -38 74 -70 81 -70 6 0 -9 21
-34 47 -46 47 -86 115 -86 146 0 28 -19 29 -26 2 -6 -24 -8 -25 -22 -11 -31
31 -6 192 36 229 9 8 27 18 40 22 14 4 25 17 28 33 5 24 10 27 51 28 26 0 48
6 53 14 12 19 -6 48 -36 62 -13 6 -24 14 -24 18 0 4 29 22 64 40 94 47 104 59
100 116 -4 56 -6 58 -37 50 -30 -7 -77 -73 -77 -108 0 -16 -9 -33 -22 -42 -41
-29 -47 -20 -27 34 17 44 17 51 4 56 -8 4 -30 -5 -48 -18 -47 -36 -55 -39 -62
-29 -3 5 15 24 40 41 50 34 54 47 11 31 -47 -18 -27 3 39 43 36 21 65 42 65
47 0 14 -9 11 -70 -26 -76 -46 -93 -44 -45 5 39 40 40 49 4 30 -27 -15 -24 2
6 30 34 32 31 40 -10 33 -23 -4 -35 -2 -35 6 0 14 74 61 98 61 24 0 42 19 42
44 1 20 1 20 14 3 13 -17 16 -17 55 -1 75 30 56 5 -25 -32 -43 -20 -74 -39
-67 -41 6 -2 27 4 45 13 61 32 192 76 248 83 60 8 95 23 103 45 11 29 -28 37
-48 9 -7 -9 -14 -12 -18 -6 -12 19 32 53 67 53 29 0 33 -3 29 -20z m-133 -30
c0 -10 -9 -21 -19 -25 -38 -12 -61 -14 -56 -4 4 5 12 9 19 9 7 0 18 12 24 26
13 27 32 24 32 -6z m1795 -100 c46 -69 61 -116 29 -89 -17 14 -104 158 -104
173 0 17 31 -17 75 -84z m-4421 43 c-14 -13 -32 -22 -39 -19 -7 2 -18 -1 -24
-7 -6 -6 -11 -7 -11 -1 0 12 82 63 93 57 4 -3 -4 -16 -19 -30z m66 -3 c-24
-15 -37 -11 -16 5 11 8 22 12 25 9 3 -3 -1 -9 -9 -14z m2221 -20 c-59 -54 -90
-53 -34 0 23 22 50 40 60 40 13 -1 6 -12 -26 -40z m-2376 -22 c5 4 5 2 2 -4
-7 -13 -53 -24 -62 -16 -3 3 0 11 6 18 8 10 17 11 29 4 9 -5 21 -6 25 -2z
m3580 -18 c12 -19 -12 -10 -31 11 -19 22 -19 22 3 10 12 -6 25 -16 28 -21z
m246 -172 c33 -30 94 -108 102 -130 12 -32 -11 -19 -40 23 -15 22 -43 60 -61
85 -37 49 -37 55 -1 22z m-1515 -215 c-2 -3 -9 -2 -15 2 -8 4 -7 13 1 28 l13
22 3 -23 c2 -13 1 -26 -2 -29z m1704 -80 c0 -2 -13 6 -29 19 -29 22 -38 47
-24 61 5 6 53 -66 53 -80z m-1655 14 c-11 -8 -29 -17 -40 -20 -17 -6 -17 -4 4
13 13 11 30 20 39 20 13 0 13 -3 -3 -13z m-101 -115 c-35 -18 -45 -5 -14 18
18 13 27 15 32 7 4 -7 -3 -17 -18 -25z m1862 -139 c-10 -10 -19 5 -10 18 6 11
8 11 12 0 2 -7 1 -15 -2 -18z m734 -159 c0 -8 -4 -12 -10 -9 -5 3 -10 13 -10
21 0 8 5 12 10 9 6 -3 10 -13 10 -21z m-1210 -32 c0 -9 -44 -32 -58 -32 -10 1
38 40 49 40 5 0 9 -4 9 -8z m-340 -177 c-19 -7 -44 -13 -55 -13 -11 0 -2 6 20
13 52 18 80 17 35 0z m-872 -24 c42 -21 149 -55 237 -75 47 -11 53 -14 28 -15
-68 -2 -249 55 -313 98 -26 18 8 13 48 -8z m722 0 c0 -11 -50 -21 -130 -26
-52 -4 -59 -2 -35 5 17 5 57 13 90 16 33 4 62 8 64 10 7 6 11 5 11 -5z m-351
-43 c-6 -11 -16 -17 -22 -14 -7 3 -20 9 -29 12 -30 10 -20 19 22 20 35 1 38
-1 29 -18z m2152 -319 c-5 -13 -10 -19 -10 -12 -1 15 10 45 15 40 3 -2 0 -15
-5 -28z m-51 -64 c0 -14 -4 -25 -9 -25 -4 0 -6 11 -3 25 2 14 6 25 8 25 2 0 4
-11 4 -25z m-779 -216 c-9 -22 -10 -22 -10 -3 -1 11 2 24 6 27 12 12 14 0 4
-24z m-1401 15 c0 -15 -22 -44 -31 -39 -11 7 7 45 21 45 6 0 10 -3 10 -6z
m-140 -173 c0 -5 -9 -7 -20 -4 -11 3 -20 7 -20 9 0 2 9 4 20 4 11 0 20 -4 20
-9z m1722 -73 c-9 -9 -12 -7 -12 12 0 19 3 21 12 12 9 -9 9 -15 0 -24z m-12
-76 c-29 -98 -87 -238 -95 -230 -12 12 82 271 96 263 4 -3 4 -18 -1 -33z m-96
-97 c-4 -8 -10 -15 -15 -15 -4 0 -6 7 -3 15 4 8 10 15 15 15 4 0 6 -7 3 -15z
m672 -172 c-8 -54 -62 -217 -95 -288 -15 -33 -36 -81 -45 -107 -10 -26 -21
-50 -25 -52 -9 -6 39 165 63 225 9 22 16 51 16 64 0 14 4 25 9 25 9 0 40 67
61 133 6 20 14 37 17 37 3 0 3 -17 -1 -37z m-737 -78 c-12 -36 -24 -64 -26
-61 -5 4 25 125 35 140 16 27 11 -21 -9 -79z m677 50 c-3 -9 -11 -13 -16 -10
-8 5 -7 11 1 21 14 18 24 11 15 -11z m-2156 -24 c23 -10 21 -11 -15 -8 -22 2
-47 6 -55 8 -10 3 -14 -2 -13 -15 1 -17 0 -17 -15 -2 -16 16 -16 18 1 31 19
13 43 10 97 -14z m1381 -32 c-25 -41 -28 -23 -4 29 11 25 17 32 20 21 2 -9 -5
-32 -16 -50z m-1561 16 c7 -8 21 -15 31 -15 10 0 21 -4 24 -10 3 -6 -5 -10
-19 -10 -32 0 -93 36 -74 43 21 9 25 8 38 -8z m300 -60 c40 -12 52 -25 39 -41
-6 -8 -21 -14 -33 -14 -30 -1 -68 -36 -72 -66 -1 -15 -6 -30 -11 -35 -10 -10
-323 -24 -323 -15 0 8 51 86 57 86 2 0 0 -12 -3 -27 -7 -25 -6 -27 9 -14 9 7
26 28 37 46 26 42 87 72 170 83 72 9 93 9 130 -3z m-45 -185 c-3 -5 -14 -10
-23 -9 -14 0 -13 2 3 9 27 11 27 11 20 0z m1183 -85 c-6 -14 -15 -25 -20 -25
-5 0 -7 3 -5 8 2 4 7 15 10 25 4 9 11 17 16 17 7 0 6 -9 -1 -25z m722 -45 c-6
-12 -14 -19 -17 -17 -2 3 1 15 7 27 6 12 14 19 17 17 2 -3 -1 -15 -7 -27z m45
-72 c-11 -52 -64 -185 -79 -197 -22 -19 -13 49 12 89 12 19 22 38 22 43 0 11
41 97 47 97 2 0 1 -15 -2 -32z m-172 -50 c-78 -100 -192 -236 -244 -292 -36
-39 -88 -95 -115 -125 -111 -123 -312 -311 -332 -311 -3 0 67 73 155 163 89
89 171 173 182 186 11 12 49 55 84 95 35 39 85 96 111 126 122 141 159 180
164 176 3 -3 0 -11 -5 -18z m-788 -238 c-10 -11 -20 -18 -23 -16 -5 6 21 35
32 36 5 0 1 -9 -9 -20z m581 -148 c-16 -15 -25 -20 -21 -12 13 25 38 50 44 45
3 -3 -8 -18 -23 -33z m-606 -18 c-8 -8 -23 -20 -34 -26 -19 -10 -18 -8 3 16
26 27 53 37 31 10z m706 -12 c-14 -27 -178 -194 -197 -201 -7 -2 -6 6 1 20 14
27 190 208 203 209 4 0 1 -12 -7 -28z m-1256 -10 c0 -11 -22 -32 -32 -32 -5 0
-4 9 2 20 11 20 30 28 30 12z m-70 -82 c-13 -30 -30 -41 -30 -17 0 16 30 60
37 53 3 -3 0 -19 -7 -36z m99 2 c-11 -31 -34 -48 -44 -32 -3 5 -12 7 -20 3
-32 -12 -13 9 20 23 20 8 38 21 42 30 11 28 13 7 2 -24z m-141 -74 c-5 -15
-48 -24 -48 -10 0 14 12 22 33 22 10 0 17 -5 15 -12z m1027 -67 c-3 -6 -16
-16 -28 -22 -21 -11 -21 -10 2 15 23 25 40 29 26 7z m-1333 -5 c76 1 136 -2
133 -6 -6 -10 -256 -13 -325 -4 -29 4 -47 10 -40 14 6 4 30 4 53 1 23 -4 104
-6 179 -5z m243 4 c-3 -5 -13 -10 -21 -10 -8 0 -12 5 -9 10 3 6 13 10 21 10 8
0 12 -4 9 -10z m882 -130 c-88 -86 -182 -158 -193 -148 -5 6 22 35 56 58 19
13 42 31 50 40 8 8 44 40 80 70 36 30 74 63 84 72 11 10 21 16 23 14 2 -2 -43
-49 -100 -106z m-3310 8 c15 -16 22 -28 16 -28 -16 0 -96 62 -101 79 -6 19 51
-15 85 -51z m255 10 c-6 -6 -16 -7 -22 -3 -9 6 -9 9 1 16 17 10 34 0 21 -13z
m3225 -6 c-24 -27 -167 -124 -167 -114 0 16 153 132 174 132 5 0 2 -8 -7 -18z
m-277 -27 c-7 -9 -15 -13 -18 -10 -3 2 1 11 8 20 7 9 15 13 18 10 3 -2 -1 -11
-8 -20z m-2851 -8 c6 -8 8 -16 5 -19 -9 -10 -42 3 -48 18 -7 18 28 19 43 1z
m371 -12 c0 -8 -4 -15 -10 -15 -5 0 -10 7 -10 15 0 8 5 15 10 15 6 0 10 -7 10
-15z m-220 -5 c8 -5 11 -12 8 -16 -10 -9 -38 3 -38 16 0 12 10 13 30 0z m161
-28 c-16 -5 -41 5 -41 17 0 7 10 6 26 -1 15 -7 21 -14 15 -16z m-559 -3 c16
-12 27 -23 25 -25 -6 -6 -67 29 -67 39 0 12 10 8 42 -14z m338 1 c12 -7 12
-12 3 -21 -9 -9 -16 -9 -28 1 -29 24 -9 42 25 20z m160 -25 c10 -12 9 -15 -8
-15 -11 0 -25 7 -32 15 -10 12 -9 15 8 15 11 0 25 -7 32 -15z m-200 -27 c0
-11 -7 -10 -31 2 -28 16 -23 32 6 18 14 -6 25 -15 25 -20z m370 17 c16 -9 20
-15 10 -16 -27 -3 -45 2 -60 17 -12 12 -12 14 5 14 11 -1 31 -7 45 -15z m-220
-35 c0 -18 -16 -18 -38 0 -15 12 -18 20 -10 23 16 5 48 -10 48 -23z m-334 9
c3 -6 25 -19 48 -30 22 -11 57 -28 76 -39 19 -10 47 -19 61 -20 16 0 33 -10
46 -29 27 -36 159 -101 288 -141 133 -41 150 -49 139 -60 -11 -11 -70 3 -167
39 -55 21 -291 134 -312 150 -5 5 -37 23 -70 41 -33 18 -77 42 -97 53 -21 11
-38 27 -38 34 0 16 16 17 26 2z m757 -39 c29 -14 36 -30 13 -30 -40 0 -151 51
-134 61 11 7 72 -8 121 -31z m-263 15 c16 -19 0 -19 -26 0 -16 12 -16 14 -3
15 9 0 22 -7 29 -15z m-234 -10 c18 -13 18 -14 -4 -8 -12 3 -25 9 -28 14 -8
14 10 11 32 -6z m148 -1 c9 -3 16 -10 16 -15 0 -14 -24 -11 -46 6 -16 12 -17
14 -2 15 9 0 23 -3 32 -6z m176 -24 c0 -5 -7 -10 -16 -10 -8 0 -12 5 -9 10 3
6 10 10 16 10 5 0 9 -4 9 -10z m2260 2 c0 -12 -68 -48 -76 -40 -3 4 11 16 33
27 45 24 43 23 43 13z m-2465 -32 c-3 -5 -12 -7 -20 -3 -21 7 -19 13 6 13 11
0 18 -4 14 -10z m326 -6 c84 -25 99 -32 99 -49 0 -18 -5 -17 -105 20 -32 13
-61 28 -63 34 -5 15 6 14 69 -5z m230 -20 c5 -3 48 -7 96 -10 49 -2 104 -6
123 -9 19 -3 91 -12 160 -21 169 -21 171 -22 178 -29 4 -3 0 -10 -8 -15 -11
-7 -7 -10 14 -16 20 -5 24 -9 15 -15 -8 -4 -23 -6 -34 -4 -11 2 -47 7 -80 10
-33 3 -71 7 -85 9 -14 2 -50 7 -80 11 -30 3 -99 15 -153 26 -53 10 -112 21
-130 24 -17 3 -47 10 -64 15 -18 4 -33 6 -33 4 0 -3 -9 0 -20 6 -11 6 -18 15
-15 20 5 9 101 4 116 -6z m-486 -3 c3 -5 1 -12 -4 -15 -12 -8 -41 3 -41 15 0
12 37 12 45 0z m208 -29 c68 -29 89 -42 69 -42 -17 0 -146 50 -156 60 -18 18
19 10 87 -18z m1893 5 c-57 -37 -106 -80 -106 -94 0 -10 5 -13 18 -8 33 13 72
17 72 8 0 -5 -25 -17 -55 -28 -53 -18 -56 -18 -89 0 -37 20 -38 35 -4 35 11 0
36 16 55 35 19 19 54 41 76 49 51 18 58 19 33 3z m199 -38 c-43 -22 -194 -89
-201 -89 -2 0 -4 3 -4 8 0 10 77 50 152 77 78 29 107 31 53 4z m-1860 -45 c28
-9 57 -20 65 -22 10 -4 8 -7 -8 -9 -12 -3 -36 3 -53 11 -17 9 -46 18 -65 22
-19 3 -37 11 -41 16 -8 13 35 6 102 -18z m-80 -24 c4 -6 -6 -10 -24 -10 -16 0
-33 5 -36 10 -4 6 6 10 24 10 16 0 33 -4 36 -10z m280 -24 c66 -13 130 -22
251 -32 28 -2 82 -8 120 -13 38 -5 168 -8 289 -7 196 2 227 5 284 24 35 12 75
22 90 21 34 -1 -61 -36 -137 -50 -169 -32 -482 -30 -782 5 -140 17 -211 34
-218 54 -5 16 17 15 103 -2z m1241 -6 c23 0 16 -20 -12 -30 -49 -19 -58 -13
-33 22 13 17 25 26 27 20 2 -7 10 -12 18 -12z m-1426 -15 c19 -7 28 -14 20
-14 -8 0 -28 6 -45 14 -39 17 -21 18 25 0z m1580 -21 c0 -2 -15 -7 -32 -13
-18 -5 -54 -17 -80 -25 -27 -8 -48 -13 -48 -10 0 4 90 47 120 56 14 5 40 0 40
-8z m-223 -80 c-21 -7 -56 -15 -80 -18 -36 -4 -32 -2 28 19 39 12 74 20 79 17
5 -3 -7 -11 -27 -18z m-1097 -24 c52 -15 252 -26 530 -29 72 -1 91 -4 77 -12
-23 -14 -319 -14 -407 0 -36 5 -90 12 -120 16 -80 8 -119 16 -126 26 -7 12 3
11 46 -1z"/>
<path d="M2727 5622 c-18 -4 -23 -21 -7 -23 35 -6 132 -4 136 2 11 18 -75 31
-129 21z"/>
<path d="M2655 5540 c11 -5 34 -8 50 -8 29 0 29 0 5 8 -14 4 -36 8 -50 8 -23
1 -23 0 -5 -8z"/>
<path d="M2368 5523 c-10 -2 -18 -9 -18 -15 0 -11 60 -1 75 13 9 9 -25 11 -57
2z"/>
<path d="M2950 5509 c0 -5 12 -11 28 -14 15 -3 52 -12 82 -20 30 -8 76 -17
101 -20 25 -3 57 -7 70 -10 13 -2 44 -6 69 -9 25 -3 61 -9 80 -12 35 -5 35 -5
10 9 -14 8 -43 18 -65 22 -22 4 -44 10 -50 13 -5 4 -37 7 -70 8 -66 1 -119 10
-144 23 -23 13 -111 21 -111 10z"/>
<path d="M1873 5356 c-34 -13 -90 -31 -125 -40 -35 -10 -101 -37 -148 -59
-103 -51 -95 -46 -87 -53 3 -3 44 12 91 35 47 22 92 41 101 41 19 0 236 79
250 91 16 15 -17 9 -82 -15z"/>
<path d="M3265 5370 c3 -5 16 -10 28 -10 18 0 19 2 7 10 -20 13 -43 13 -35 0z"/>
<path d="M3690 5342 c0 -10 21 -32 32 -32 16 0 8 19 -12 30 -11 6 -20 7 -20 2z"/>
<path d="M1540 5297 c-57 -23 -96 -43 -86 -45 17 -4 172 53 190 69 24 22 -8
14 -104 -24z"/>
<path d="M3545 5299 c9 -14 154 -81 167 -77 6 2 -11 17 -38 34 -75 45 -144 68
-129 43z"/>
<path d="M3750 5290 c0 -14 38 -32 45 -21 3 6 -3 15 -14 20 -24 14 -31 14 -31
1z"/>
<path d="M1860 5269 c-61 -17 -64 -19 -53 -30 7 -7 25 -4 57 10 65 30 63 38
-4 20z"/>
<path d="M3507 5253 c-15 -14 -6 -33 22 -48 17 -8 32 -11 35 -6 7 10 -48 63
-57 54z"/>
<path d="M3840 5232 c0 -5 23 -21 52 -37 28 -15 88 -53 132 -83 98 -65 196
-126 219 -135 31 -12 0 31 -41 57 -74 46 -196 121 -221 136 -14 8 -42 25 -61
36 -43 26 -80 39 -80 26z"/>
<path d="M1347 5213 c-26 -11 -35 -18 -26 -24 13 -8 63 13 74 31 8 14 -3 12
-48 -7z"/>
<path d="M3770 5181 c0 -5 6 -12 13 -15 6 -3 24 -14 38 -24 26 -17 105 -68
267 -173 48 -31 116 -75 151 -98 35 -22 67 -41 72 -41 25 0 1 22 -83 76 -51
32 -127 82 -169 110 -41 29 -102 65 -135 82 -33 17 -66 38 -74 47 -13 15 -62
45 -75 45 -3 0 -5 -4 -5 -9z"/>
<path d="M1370 5168 c-19 -5 -39 -14 -45 -20 -14 -15 50 -4 95 15 31 14 32 15
10 15 -14 0 -41 -4 -60 -10z"/>
<path d="M4120 5148 c0 -8 12 -20 26 -27 32 -14 29 5 -4 27 -19 13 -22 13 -22
0z"/>
<path d="M3650 5142 c0 -12 68 -48 75 -40 3 3 -9 15 -28 27 -37 23 -47 25 -47
13z"/>
<path d="M1348 5067 c-38 -11 -68 -25 -68 -29 0 -21 34 -18 85 6 31 14 60 26
65 26 6 0 10 5 10 10 0 13 -12 11 -92 -13z"/>
<path d="M4220 5080 c0 -5 9 -14 20 -20 22 -12 27 -1 8 18 -14 14 -28 16 -28
2z"/>
<path d="M4270 4966 c0 -2 20 -20 45 -40 54 -45 60 -38 9 10 -32 30 -54 42
-54 30z"/>
<path d="M4470 4881 c0 -5 19 -26 42 -45 41 -36 71 -45 83 -26 6 10 -6 14 -36
11 -9 -1 -19 7 -22 18 -5 20 -67 59 -67 42z"/>
<path d="M4480 4797 c0 -8 14 -26 30 -40 26 -23 30 -25 30 -9 0 20 -35 62 -50
62 -6 0 -10 -6 -10 -13z"/>
<path d="M4360 4789 c0 -8 18 -24 41 -37 22 -13 45 -35 52 -50 6 -15 27 -52
47 -83 19 -31 62 -110 95 -177 32 -67 64 -122 71 -122 18 0 4 51 -28 98 -16
23 -40 66 -53 95 -12 29 -35 69 -49 90 -15 21 -37 60 -51 85 -23 45 -34 55
-97 96 -22 14 -28 15 -28 5z"/>
<path d="M4773 4679 c13 -29 60 -130 165 -348 43 -89 36 -41 -8 60 -23 52 -49
112 -58 134 -34 80 -88 179 -100 183 -10 3 -10 -3 1 -29z"/>
<path d="M4983 4523 c23 -45 50 -116 77 -203 18 -58 35 -100 37 -93 10 28 -89
303 -109 303 -5 0 -7 -3 -5 -7z"/>
<path d="M4780 4463 c0 -19 36 -93 47 -97 9 -4 10 1 3 20 -22 57 -50 100 -50
77z"/>
<path d="M5055 4452 c4 -8 11 -26 15 -40 7 -22 8 -23 9 -6 1 11 -6 29 -15 40
-8 10 -12 13 -9 6z"/>
<path d="M5110 4307 c0 -15 53 -137 58 -133 5 6 -36 115 -50 131 -4 5 -8 6 -8
2z"/>
<path d="M4797 4264 c-4 -4 -7 -20 -7 -36 0 -35 23 -34 28 1 4 25 -10 46 -21
35z"/>
<path d="M4882 4249 c2 -7 10 -15 17 -17 8 -3 12 1 9 9 -2 7 -10 15 -17 17 -8
3 -12 -1 -9 -9z"/>
<path d="M4981 4233 c1 -17 38 -87 38 -75 1 16 -26 82 -33 82 -4 0 -6 -3 -5
-7z"/>
<path d="M5130 4127 c0 -19 54 -160 58 -149 2 7 -4 33 -13 59 -16 50 -44 104
-45 90z"/>
<path d="M5185 4093 c17 -40 23 -49 29 -42 7 7 -25 79 -35 79 -5 0 -2 -17 6
-37z"/>
<path d="M5110 4043 c13 -46 29 -79 29 -64 1 22 -21 91 -30 91 -4 0 -4 -12 1
-27z"/>
<path d="M5224 3997 c3 -11 9 -30 12 -43 3 -13 10 -24 15 -24 10 0 -9 61 -24
75 -7 7 -8 4 -3 -8z"/>
<path d="M5156 3910 c7 -28 12 -35 18 -29 2 2 -2 15 -10 29 l-15 25 7 -25z"/>
<path d="M5226 3864 c5 -10 9 -44 8 -74 0 -50 2 -55 20 -55 12 1 22 6 23 11 3
14 -39 124 -50 131 -7 4 -7 0 -1 -13z"/>
<path d="M4976 3783 c8 -46 15 -63 25 -63 6 0 7 9 3 23 -21 68 -37 90 -28 40z"/>
<path d="M5056 3783 c1 -15 2 -36 3 -45 1 -10 6 -18 12 -18 8 0 9 13 4 38 -8
45 -23 64 -19 25z"/>
<path d="M5064 3556 c-9 -15 -14 -29 -12 -32 3 -2 13 7 22 22 10 14 15 28 13
31 -3 2 -13 -7 -23 -21z"/>
<path d="M5336 3393 c5 -79 10 -96 22 -76 9 15 -8 153 -19 153 -4 0 -5 -35 -3
-77z"/>
<path d="M5100 3251 c0 -43 4 -71 11 -71 12 0 10 128 -3 136 -4 3 -8 -27 -8
-65z"/>
<path d="M5349 3253 c-4 -129 -3 -155 2 -159 3 -2 9 27 13 64 8 94 8 122 -4
122 -5 0 -10 -12 -11 -27z"/>
<path d="M5038 3116 c-16 -19 -33 -46 -40 -60 -6 -14 -14 -26 -17 -26 -33 -1
-60 -125 -55 -251 3 -68 1 -78 -38 -158 -59 -124 -97 -217 -118 -289 -29 -103
0 -67 46 56 46 124 122 282 135 282 12 0 12 -23 0 -36 -4 -5 -13 -22 -19 -39
-6 -16 -40 -97 -77 -180 -74 -167 -85 -207 -61 -234 14 -16 13 -20 -9 -53 -14
-21 -25 -51 -25 -70 l0 -33 21 34 c11 19 27 40 34 47 7 8 17 28 20 46 8 36
102 225 116 234 14 8 80 115 84 135 6 28 -19 42 -37 21 -25 -30 -140 -244
-165 -307 -8 -20 -12 -24 -12 -11 -1 27 65 188 106 259 20 33 37 73 39 88 2
16 26 65 53 111 28 45 48 85 45 88 -3 3 -23 -15 -44 -40 -37 -43 -38 -44 -42
-20 -6 42 17 110 75 220 37 69 57 121 61 153 2 26 1 47 -3 47 -4 0 -12 -21
-19 -47 -15 -59 -123 -284 -133 -278 -24 15 29 195 81 272 22 33 40 63 40 67
0 15 -17 3 -42 -28z"/>
<path d="M5170 3069 c0 -18 3 -29 7 -25 11 11 13 45 3 51 -6 4 -10 -7 -10 -26z"/>
<path d="M5090 2879 c0 -48 9 -48 15 0 2 17 -1 33 -6 36 -5 4 -9 -13 -9 -36z"/>
<path d="M5137 2714 c-4 -4 -7 -17 -7 -28 1 -19 1 -20 11 -3 11 19 8 43 -4 31z"/>
<path d="M5320 2629 c-12 -45 -16 -96 -8 -104 3 -3 11 22 17 56 7 33 15 67 18
75 3 8 0 14 -6 14 -5 0 -15 -19 -21 -41z"/>
<path d="M5087 2483 c-12 -19 -19 -83 -9 -83 6 0 13 18 17 41 7 39 3 59 -8 42z"/>
<path d="M5225 2373 c-3 -21 -8 -49 -11 -61 -8 -38 14 -16 26 26 12 46 13 72
0 72 -5 0 -12 -17 -15 -37z"/>
<path d="M4944 2338 c-4 -13 -24 -60 -46 -104 -44 -93 -61 -184 -35 -184 9 0
19 10 21 23 3 12 10 46 16 75 5 30 25 87 44 127 19 41 31 76 28 79 -11 12 -21
6 -28 -16z"/>
<path d="M4938 2040 c-27 -35 -28 -50 -3 -50 19 0 37 35 33 63 -3 20 -5 19
-30 -13z"/>
<path d="M4715 1889 c-10 -15 1 -23 20 -15 9 3 13 10 10 16 -8 13 -22 13 -30
-1z"/>
<path d="M4820 1885 c0 -8 5 -15 10 -15 6 0 10 7 10 15 0 8 -4 15 -10 15 -5 0
-10 -7 -10 -15z"/>
<path d="M4689 1762 c-170 -194 -173 -196 -448 -466 -66 -65 -121 -123 -121
-128 0 -14 36 14 134 105 246 226 476 474 476 513 0 20 -4 18 -41 -24z"/>
<path d="M4714 1688 c-54 -62 -208 -223 -342 -356 -134 -134 -241 -246 -238
-249 8 -8 42 20 179 150 73 68 144 135 158 148 38 34 192 208 277 312 64 78
82 107 68 107 -2 0 -48 -51 -102 -112z"/>
<path d="M4846 1749 c-150 -179 -495 -538 -651 -676 -32 -29 -55 -56 -51 -60
4 -5 13 0 20 10 7 9 21 17 31 17 33 0 579 562 661 681 34 50 26 72 -10 28z"/>
<path d="M3940 1240 c-19 -11 -45 -25 -57 -31 -22 -12 -38 -37 -29 -47 8 -7
68 33 100 67 35 36 33 38 -14 11z"/>
<path d="M4036 1181 c-21 -23 -4 -38 18 -15 17 17 21 34 8 34 -5 0 -17 -9 -26
-19z"/>
<path d="M3895 1097 c-31 -23 -9 -40 26 -20 16 10 29 21 29 25 0 13 -35 9 -55
-5z"/>
<path d="M3910 945 c-10 -12 -10 -15 3 -15 19 0 31 16 18 24 -5 3 -14 -1 -21
-9z"/>
<path d="M2775 900 c3 -5 15 -10 26 -10 10 0 19 5 19 10 0 6 -12 10 -26 10
-14 0 -23 -4 -19 -10z"/>
<path d="M3826 844 c-8 -22 -2 -27 22 -20 31 10 36 36 8 36 -13 0 -27 -7 -30
-16z"/>
<path d="M3734 789 l-29 -21 30 7 c34 7 51 20 38 28 -5 3 -22 -3 -39 -14z"/>
<path d="M2822 791 c-10 -6 -4 -10 20 -16 l33 -7 -37 -10 c-37 -10 -55 -40
-20 -33 9 2 27 4 39 4 13 1 29 14 42 36 l20 35 -42 0 c-23 0 -48 -4 -55 -9z"/>
<path d="M3603 735 c-51 -27 -122 -79 -118 -86 6 -9 122 32 159 56 14 10 26
22 26 29 0 14 -42 15 -67 1z"/>
<path d="M2966 707 c-33 -10 -37 -14 -24 -24 8 -7 17 -11 20 -8 3 3 22 6 42 7
32 1 55 13 45 22 -13 12 -50 13 -83 3z"/>
<path d="M2998 5090 c-94 -41 -142 -70 -117 -70 8 0 23 6 34 13 11 7 55 28 98
46 42 19 77 38 77 42 0 11 10 14 -92 -31z"/>
<path d="M3174 4950 c-91 -21 -154 -50 -263 -121 -41 -27 -78 -49 -82 -49 -5
0 -9 -4 -9 -10 0 -18 27 -10 71 22 70 50 227 120 312 138 80 16 184 19 247 6
19 -4 80 -20 135 -36 134 -38 165 -44 165 -32 0 15 -147 61 -247 78 -147 24
-239 25 -329 4z"/>
<path d="M3800 4850 c0 -14 15 -19 29 -11 9 6 7 10 -8 14 -12 3 -21 1 -21 -3z"/>
<path d="M3870 4820 c0 -5 9 -10 20 -10 11 0 20 5 20 10 0 6 -9 10 -20 10 -11
0 -20 -4 -20 -10z"/>
<path d="M2982 4600 c-24 -11 -41 -24 -37 -30 6 -10 95 28 95 42 0 12 -10 10
-58 -12z"/>
<path d="M3344 4514 c-27 -14 -74 -61 -74 -75 0 -26 103 -4 126 27 14 18 8 51
-11 58 -7 2 -25 -2 -41 -10z"/>
<path d="M3490 4490 c-24 -22 -42 -42 -38 -45 3 -3 21 -8 40 -11 28 -5 39 -1
66 24 76 71 11 101 -68 32z"/>
<path d="M3167 4508 c-10 -7 -26 -41 -36 -76 -17 -55 -18 -64 -4 -69 20 -8
113 94 113 123 0 33 -41 45 -73 22z"/>
<path d="M3683 4494 c-29 -14 -61 -69 -48 -82 11 -12 57 -2 97 19 33 19 43 30
43 49 0 21 -5 25 -30 28 -16 1 -44 -5 -62 -14z"/>
<path d="M3838 4449 c-16 -11 -28 -28 -28 -38 0 -9 -5 -22 -11 -28 -8 -8 0
-12 27 -15 30 -4 43 1 65 21 16 14 29 37 31 51 3 21 -1 25 -27 27 -18 2 -41
-5 -57 -18z"/>
<path d="M3979 4404 c-20 -6 -44 -48 -35 -63 8 -12 49 -15 60 -4 4 4 19 8 34
10 52 6 72 14 72 27 0 8 -8 17 -17 21 -23 10 -93 15 -114 9z"/>
<path d="M3427 4383 c-13 -12 -7 -50 11 -65 33 -30 62 -40 77 -28 17 14 9 44
-22 75 -25 24 -53 32 -66 18z"/>
<path d="M3580 4364 c0 -18 46 -84 65 -94 50 -27 62 25 16 71 -26 25 -81 41
-81 23z"/>
<path d="M3270 4338 c1 -31 29 -65 61 -73 56 -14 50 57 -6 81 -47 19 -55 18
-55 -8z"/>
<path d="M3772 4331 c-15 -9 -1 -55 25 -83 36 -40 87 -3 57 41 -20 27 -67 52
-82 42z"/>
<path d="M3150 4320 c-13 -9 -9 -16 24 -46 35 -33 39 -35 54 -20 15 15 15 18
0 44 -18 29 -53 39 -78 22z"/>
<path d="M4125 4314 c-16 -7 -40 -13 -52 -14 -31 0 -39 -19 -14 -36 12 -8 21
-26 21 -39 0 -54 46 -125 82 -125 10 0 18 7 18 16 0 21 23 13 26 -10 3 -24 21
-43 45 -49 25 -7 96 60 81 75 -6 6 -17 5 -30 -3 -12 -7 -24 -10 -28 -7 -7 7
-4 14 21 58 23 40 1 52 -96 54 -56 1 -84 5 -86 14 -3 8 8 12 37 12 53 0 86 16
70 35 -20 24 -63 33 -95 19z m120 -134 c3 -5 -3 -10 -14 -10 -12 0 -21 5 -21
10 0 6 6 10 14 10 8 0 18 -4 21 -10z"/>
<path d="M3930 4293 c0 -9 9 -36 21 -59 29 -62 79 -73 79 -18 0 36 -16 61 -50
79 -38 19 -50 19 -50 -2z"/>
<path d="M3010 4261 c0 -29 46 -62 73 -52 32 12 32 34 -2 54 -40 23 -71 22
-71 -2z"/>
<path d="M4373 4209 c28 -158 33 -174 55 -177 12 -2 22 2 22 8 0 6 -5 8 -10 5
-13 -8 -18 7 -25 75 -3 30 -10 59 -15 64 -6 6 -10 18 -10 27 0 10 -5 21 -11
25 -8 5 -10 -3 -6 -27z"/>
<path d="M3290 4159 c-37 -10 -84 -20 -105 -23 -44 -7 -227 -96 -271 -131 -42
-33 -24 -40 22 -9 21 15 56 33 78 40 l39 14 -19 -21 c-10 -11 -55 -38 -100
-60 -103 -50 -117 -64 -85 -90 13 -11 35 -20 50 -20 54 -3 87 -7 135 -17 45
-9 309 -8 416 2 96 9 163 17 169 20 3 2 27 7 53 10 26 4 96 17 155 30 60 13
137 27 171 31 35 3 94 16 130 27 38 12 88 21 115 20 42 -2 48 0 45 15 -5 29
-261 109 -363 114 -17 1 -48 8 -70 16 -62 21 -185 42 -191 32 -3 -5 -13 -9
-22 -9 -13 0 -14 2 -4 9 11 7 10 10 -3 15 -29 11 -54 7 -64 -11 -8 -15 -12
-16 -34 -4 -37 19 -169 19 -247 0z m145 -19 c-16 -4 -45 -8 -63 -9 -20 -1 -35
-7 -39 -17 -4 -12 -8 -13 -14 -3 -5 8 -23 12 -46 11 -46 -3 -40 5 11 15 53 11
191 14 151 3z m108 -107 c0 -67 -24 -129 -54 -138 -32 -11 -109 -8 -123 4 -11
9 -11 19 1 59 25 81 32 93 66 107 30 13 33 12 54 -13 19 -22 22 -24 23 -9 0
10 -5 28 -11 39 -9 16 -8 22 2 29 25 15 42 -16 42 -78z m162 61 c46 -4 89 -10
95 -14 16 -10 26 -125 11 -134 -6 -4 -43 -9 -83 -11 -40 -2 -90 -8 -110 -13
-43 -11 -41 -13 -38 52 1 26 -4 61 -10 77 -17 40 -7 61 26 55 15 -3 64 -8 109
-12z m-525 2 c0 -2 -20 -11 -45 -19 -52 -18 -60 -13 -12 8 32 14 57 19 57 11z
m108 -57 c-10 -29 -6 -96 8 -146 5 -18 1 -23 -27 -30 -34 -9 -193 7 -205 20
-15 16 3 111 24 130 24 21 130 55 174 56 l37 1 -11 -31z m589 -22 c6 -41 -3
-75 -17 -61 -12 12 -23 92 -14 105 10 17 24 -3 31 -44z m50 -9 c2 -15 -1 -29
-7 -33 -11 -7 -12 -4 -15 38 -3 35 17 30 22 -5z m51 -1 c2 -19 -1 -27 -12 -27
-11 0 -16 10 -16 31 0 38 24 35 28 -4z m80 -1 c-2 -6 -16 -11 -33 -13 -29 -2
-29 -2 -10 12 21 16 48 16 43 1z m-1043 -107 c5 -5 1 -9 -12 -9 -29 0 -53 10
-53 22 0 12 50 2 65 -13z"/>
<path d="M3411 4023 c-17 -34 -29 -91 -20 -104 9 -15 7 -19 34 60 8 24 15 47
15 52 0 15 -19 10 -29 -8z"/>
<path d="M2796 4014 c-9 -23 -7 -46 3 -40 12 8 21 45 11 51 -4 3 -11 -2 -14
-11z"/>
<path d="M4432 3933 c-6 -10 -13 -33 -17 -50 -7 -35 -14 -40 -32 -22 -8 8 -14
6 -21 -7 -22 -43 -52 -147 -52 -180 0 -19 -9 -57 -21 -84 -30 -71 -18 -83 18
-19 21 36 33 73 37 112 6 66 25 112 46 112 19 0 16 -50 -7 -120 -40 -122 -78
-223 -109 -292 -19 -42 -33 -77 -31 -80 11 -11 97 165 153 312 30 79 38 116
40 175 1 41 5 94 8 118 7 44 3 53 -12 25z"/>
<path d="M4476 3845 c-5 -14 -12 -66 -20 -143 -3 -25 -1 -30 9 -22 28 23 51
180 26 180 -5 0 -11 -7 -15 -15z"/>
<path d="M2995 3690 c-3 -4 2 -11 11 -14 22 -8 34 -7 34 3 0 12 -39 21 -45 11z"/>
<path d="M3880 3684 c-10 -11 -9 -14 8 -14 25 0 37 16 18 23 -8 3 -20 -1 -26
-9z"/>
<path d="M3545 3659 c-49 -10 -121 -21 -159 -24 -38 -4 -64 -10 -57 -14 12 -8
60 -6 161 6 82 10 88 10 113 12 13 0 31 7 41 14 32 23 -1 25 -99 6z"/>
<path d="M3755 3659 c-38 -11 -82 -21 -96 -24 -14 -3 -61 -12 -105 -20 -43 -8
-80 -15 -81 -15 -2 0 -3 -5 -3 -11 0 -6 8 -8 18 -5 9 3 42 8 72 11 142 16 290
55 290 76 0 12 -13 10 -95 -12z"/>
<path d="M3094 3645 c11 -8 29 -15 40 -16 12 0 29 -2 38 -4 10 -2 20 0 23 5 5
9 -20 17 -81 25 -36 5 -38 5 -20 -10z"/>
<path d="M4431 3607 c-7 -20 -11 -43 -8 -50 2 -6 9 5 16 26 7 20 11 43 8 50
-2 6 -9 -5 -16 -26z"/>
<path d="M4121 3587 c-25 -51 -26 -61 -6 -53 11 4 10 -6 -6 -50 -29 -77 -17
-79 21 -4 17 34 39 64 49 67 29 7 25 58 -5 72 -33 15 -29 17 -53 -32z"/>
<path d="M3210 3583 c0 -12 163 -15 180 -3 11 7 -14 10 -82 10 -54 0 -98 -3
-98 -7z"/>
<path d="M3988 3501 c-21 -38 -38 -72 -38 -76 0 -18 35 24 52 62 10 23 23 45
28 48 12 7 13 35 3 35 -5 0 -25 -31 -45 -69z"/>
<path d="M4402 3523 c-18 -33 -89 -207 -102 -248 -7 -22 -24 -62 -38 -88 -13
-26 -22 -50 -19 -53 3 -3 23 32 45 78 51 107 135 319 128 325 -2 3 -9 -4 -14
-14z"/>
<path d="M3932 3517 c-15 -18 -33 -67 -24 -67 28 1 71 80 43 80 -5 0 -13 -6
-19 -13z"/>
<path d="M4237 3462 c-23 -58 -21 -76 4 -29 11 21 19 46 17 55 -2 11 -10 1
-21 -26z"/>
<path d="M3610 3481 c0 -15 16 -22 34 -15 25 9 19 24 -9 24 -14 0 -25 -4 -25
-9z"/>
<path d="M4486 3456 c-9 -22 -14 -41 -12 -43 7 -8 38 57 33 70 -2 7 -12 -6
-21 -27z"/>
<path d="M3703 3465 c-15 -17 -17 -35 -3 -35 9 0 30 31 30 44 0 11 -15 6 -27
-9z"/>
<path d="M2996 3421 c-21 -23 -20 -31 2 -31 18 0 42 18 42 31 0 16 -29 16 -44
0z"/>
<path d="M3438 3420 c-12 -4 -42 -5 -65 -5 -41 2 -55 -7 -33 -20 14 -9 169 -9
208 0 28 6 44 23 25 26 -30 4 -115 3 -135 -1z"/>
<path d="M3050 3361 c-5 -11 -10 -30 -10 -43 0 -13 -7 -55 -15 -93 -17 -82
-20 -129 -5 -104 5 9 12 31 15 50 20 122 28 154 41 174 13 20 10 35 -7 35 -5
0 -13 -9 -19 -19z"/>
<path d="M4433 3333 c-40 -97 -64 -166 -59 -171 8 -8 9 -6 41 73 34 88 46 125
37 125 -4 0 -12 -12 -19 -27z"/>
<path d="M2946 3305 c-5 -16 -15 -53 -23 -82 -7 -28 -16 -70 -19 -94 -3 -24
-7 -47 -10 -51 -3 -4 -1 -8 4 -8 12 0 65 213 60 242 -4 21 -5 20 -12 -7z"/>
<path d="M4480 3310 c-19 -36 -82 -184 -85 -203 -7 -35 17 -11 34 33 10 25 27
65 39 90 23 51 37 100 28 100 -3 0 -10 -9 -16 -20z"/>
<path d="M3107 3273 c-2 -5 -5 -28 -6 -53 -1 -25 -6 -49 -12 -54 -5 -6 -9 -18
-9 -29 0 -12 -11 -23 -29 -30 -18 -7 -32 -21 -36 -36 -5 -18 -9 -21 -15 -12
-4 8 -13 10 -19 7 -7 -5 -12 10 -13 46 -1 35 -3 42 -5 21 -5 -35 -45 -80 -105
-119 -40 -25 -95 -91 -85 -101 4 -3 -1 -12 -11 -19 -10 -8 -12 -13 -5 -14 7 0
20 11 29 25 10 15 26 25 39 25 13 0 42 15 66 33 35 27 48 41 66 76 1 1 7 0 13
-4 8 -5 4 -15 -12 -34 -13 -14 -32 -37 -43 -50 -20 -24 -20 -24 0 -13 11 6 51
41 90 76 38 36 82 71 97 77 30 12 48 53 48 110 0 33 3 39 21 39 18 0 19 3 9
14 -15 19 -36 11 -44 -17 -7 -26 -15 -19 -18 16 -2 28 -4 32 -11 20z"/>
<path d="M3167 3198 c-2 -7 -3 -26 -2 -43 2 -16 3 -36 4 -44 2 -27 9 -6 16 47
4 31 3 52 -3 52 -6 0 -12 -6 -15 -12z"/>
<path d="M3305 3128 c-4 -9 1 -32 9 -53 9 -21 16 -50 16 -66 0 -15 5 -31 11
-35 17 -10 1 137 -16 155 -12 13 -15 12 -20 -1z"/>
<path d="M3364 3093 c2 -10 10 -53 17 -96 6 -43 16 -80 21 -83 14 -9 2 164
-12 182 -17 20 -32 18 -26 -3z"/>
<path d="M3434 3000 c6 -65 13 -100 22 -109 10 -9 -6 130 -17 148 -7 11 -9 0
-5 -39z"/>
<path d="M4351 3024 c-13 -29 -6 -47 9 -24 9 14 14 50 7 50 -2 0 -9 -12 -16
-26z"/>
<path d="M3136 2941 c-14 -27 -22 -52 -18 -55 8 -5 62 81 62 98 0 20 -20 -1
-44 -43z"/>
<path d="M4141 2931 c-33 -64 -37 -76 -22 -67 12 8 63 117 57 123 -3 3 -18
-22 -35 -56z"/>
<path d="M3479 2960 c-1 -14 0 -29 6 -90 2 -14 3 -37 4 -52 1 -16 6 -28 12
-28 5 0 8 4 5 8 -3 5 -6 40 -7 79 -1 40 -6 78 -10 85 -7 10 -9 10 -10 -2z"/>
<path d="M4374 2946 c-8 -22 3 -33 18 -18 9 9 9 15 0 24 -9 9 -13 7 -18 -6z"/>
<path d="M4275 2926 c-9 -14 -15 -31 -13 -38 3 -7 12 2 22 20 21 41 14 54 -9
18z"/>
<path d="M3531 2840 c2 -71 15 -142 19 -110 3 21 1 131 -3 152 -9 48 -18 24
-16 -42z"/>
<path d="M4373 2868 c-18 -24 -55 -109 -50 -114 6 -6 39 54 57 101 10 27 8 32
-7 13z"/>
<path d="M4172 2845 c-7 -15 -11 -30 -8 -32 7 -7 28 36 24 49 -2 6 -9 -2 -16
-17z"/>
<path d="M4235 2750 c-20 -34 -35 -63 -32 -66 5 -5 31 32 60 85 32 59 10 44
-28 -19z"/>
<path d="M3650 2661 c-6 -12 -10 -31 -8 -41 3 -17 5 -16 19 9 9 16 13 34 9 41
-6 9 -11 7 -20 -9z"/>
<path d="M3887 2664 c-4 -4 -7 -14 -7 -23 0 -11 3 -12 11 -4 6 6 10 16 7 23
-2 6 -7 8 -11 4z"/>
<path d="M3793 2611 c-37 -47 -133 -204 -128 -210 8 -7 68 78 133 187 33 56
31 69 -5 23z"/>
<path d="M3694 2555 c-18 -36 -28 -65 -23 -65 13 0 57 70 64 103 12 48 -9 29
-41 -38z"/>
<path d="M3782 2499 c-32 -48 -39 -69 -24 -69 9 0 68 108 61 114 -2 2 -19 -18
-37 -45z"/>
<path d="M3827 2463 c-43 -64 -51 -83 -29 -69 14 8 85 127 79 132 -2 3 -25
-26 -50 -63z"/>
<path d="M3625 2440 c-9 -16 -13 -30 -11 -30 3 0 14 14 26 30 12 17 17 30 11
30 -6 0 -17 -13 -26 -30z"/>
<path d="M3462 2418 c-16 -21 -42 -76 -42 -90 0 -13 64 53 81 85 8 13 6 17 -9
17 -11 0 -24 -6 -30 -12z"/>
<path d="M3923 2418 c-19 -25 -24 -38 -14 -38 11 0 35 39 28 46 -2 3 -9 -1
-14 -8z"/>
<path d="M4444 2417 c-8 -21 2 -35 16 -21 5 5 6 15 0 24 -8 12 -10 12 -16 -3z"/>
<path d="M3693 2390 c-23 -29 -31 -56 -13 -45 20 12 10 -14 -16 -42 l-25 -28
5 28 c4 15 4 27 1 27 -18 0 -145 -168 -145 -193 0 -6 11 0 25 13 14 13 25 29
25 36 0 6 7 18 17 25 15 13 15 12 0 -16 -24 -44 -75 -98 -86 -90 -13 8 -79
-91 -87 -132 -5 -25 -2 -33 15 -42 28 -15 77 10 94 47 6 15 24 46 39 69 34 51
36 69 3 28 -13 -16 -27 -26 -31 -23 -8 9 28 67 61 98 l26 25 -10 -30 c-10 -28
-8 -26 29 15 38 43 50 70 31 70 -5 0 -17 -12 -26 -27 -17 -25 -19 -26 -25 -8
-9 26 -1 47 16 41 15 -6 17 -3 64 58 25 32 50 91 50 119 0 14 -15 5 -37 -23z
m-228 -359 c3 -5 1 -12 -5 -16 -5 -3 -10 1 -10 9 0 18 6 21 15 7z"/>
<path d="M3956 2347 c-29 -49 -36 -81 -12 -57 25 26 56 89 46 95 -5 3 -20 -14
-34 -38z"/>
<path d="M3748 2353 c-26 -32 -49 -73 -40 -73 11 0 36 28 52 58 15 30 8 38
-12 15z"/>
<path d="M3865 2331 c-8 -17 -12 -31 -7 -31 12 0 37 48 29 56 -3 3 -13 -8 -22
-25z"/>
<path d="M3992 2276 c-21 -36 -36 -76 -29 -76 6 0 67 97 67 105 0 16 -21 0
-38 -29z"/>
<path d="M3753 2268 c-11 -13 -33 -43 -50 -68 -16 -25 -70 -103 -120 -175 -98
-142 -118 -175 -105 -175 11 0 46 49 138 190 41 63 80 122 87 130 47 57 85
120 73 120 -1 0 -12 -10 -23 -22z"/>
<path d="M3792 2228 c-53 -78 -142 -229 -142 -241 0 -14 52 60 81 116 11 21
36 59 55 84 44 58 58 83 45 83 -6 0 -23 -19 -39 -42z"/>
<path d="M4365 2189 c-10 -15 3 -25 16 -12 7 7 7 13 1 17 -6 3 -14 1 -17 -5z"/>
<path d="M4061 2134 c-26 -44 -27 -57 0 -24 29 37 41 60 30 60 -5 0 -18 -16
-30 -36z"/>
<path d="M3943 2095 c-9 -24 1 -27 15 -5 8 13 8 20 2 20 -6 0 -13 -7 -17 -15z"/>
<path d="M4236 2070 c-14 -22 -26 -42 -26 -45 0 -3 -18 -37 -39 -75 -22 -39
-37 -70 -33 -70 8 0 72 99 101 157 11 23 25 44 31 48 12 8 13 25 1 25 -4 0
-20 -18 -35 -40z"/>
<path d="M4112 1976 c-17 -37 -15 -45 4 -18 8 12 14 27 12 33 -2 6 -9 -1 -16
-15z"/>
<path d="M2945 1941 c-3 -5 9 -11 27 -13 54 -5 138 3 132 13 -7 12 -151 12
-159 0z"/>
<path d="M3993 1915 c-27 -41 -29 -53 -7 -34 19 15 47 69 37 69 -5 0 -18 -16
-30 -35z"/>
<path d="M3576 1894 c-25 -37 -28 -52 -7 -39 14 8 44 65 38 72 -3 2 -17 -12
-31 -33z"/>
<path d="M3299 1904 c-11 -14 -9 -15 16 -12 16 1 30 9 33 16 6 18 -33 15 -49
-4z"/>
<path d="M3188 1885 c-3 -3 -50 -8 -104 -11 -99 -6 -113 -9 -101 -20 8 -9 236
15 256 26 12 7 9 9 -15 10 -17 0 -33 -2 -36 -5z"/>
<path d="M3232 1838 c-2 -10 -13 -18 -23 -18 -29 0 -30 -16 -1 -18 15 -1 29
-7 30 -12 2 -6 11 -10 19 -10 11 0 14 7 9 25 -5 18 -2 27 9 31 24 9 18 20 -11
20 -18 0 -29 -6 -32 -18z"/>
<path d="M3387 1818 c-14 -18 -35 -43 -47 -56 -34 -36 -16 -37 20 -1 37 38 65
78 58 85 -3 2 -17 -10 -31 -28z"/>
<path d="M3475 1766 c-79 -84 -87 -94 -82 -109 2 -6 25 16 52 51 26 34 54 62
62 62 12 0 38 48 30 56 -1 2 -30 -25 -62 -60z"/>
<path d="M3746 1795 c-27 -49 -15 -54 13 -5 12 22 19 40 14 40 -5 0 -17 -16
-27 -35z"/>
<path d="M4065 1778 c-35 -53 -51 -104 -19 -63 20 25 66 115 59 115 -2 0 -20
-24 -40 -52z"/>
<path d="M3430 1803 c0 -5 -13 -21 -28 -38 -39 -41 -66 -85 -54 -85 13 0 34
21 66 63 28 38 39 67 26 67 -6 0 -10 -3 -10 -7z"/>
<path d="M3055 1792 c-2 -2 -9 -4 -17 -5 -18 -3 -17 -22 2 -23 16 0 70 23 70
31 0 5 -49 3 -55 -3z"/>
<path d="M3301 1779 c-13 -11 -21 -23 -17 -26 4 -4 16 3 28 15 28 28 20 36
-11 11z"/>
<path d="M3977 1768 c-13 -18 -45 -62 -71 -97 -25 -35 -44 -67 -40 -70 8 -8
45 40 100 129 45 74 51 92 11 38z"/>
<path d="M3821 1764 c-17 -38 -6 -42 14 -5 8 17 12 31 7 31 -5 0 -14 -12 -21
-26z"/>
<path d="M3009 1719 c-8 -5 2 -10 27 -14 21 -4 46 -9 56 -11 22 -6 33 13 11
20 -33 11 -81 13 -94 5z"/>
<path d="M3445 1660 c-39 -53 -43 -73 -9 -43 21 19 64 77 64 87 0 18 -23 0
-55 -44z"/>
<path d="M3571 1665 c-17 -20 -31 -38 -31 -41 0 -9 48 30 60 49 21 34 3 28
-29 -8z"/>
<path d="M3672 1688 c-6 -6 -12 -21 -12 -32 0 -20 1 -19 16 2 18 26 15 49 -4
30z"/>
<path d="M4155 1680 c-18 -20 -15 -38 4 -25 15 9 33 45 23 45 -5 0 -17 -9 -27
-20z"/>
<path d="M3982 1657 c-25 -27 -28 -47 -8 -47 13 0 43 56 34 65 -2 3 -14 -5
-26 -18z"/>
<path d="M3488 1633 c-18 -21 -41 -63 -34 -63 9 0 59 70 54 75 -3 3 -12 -3
-20 -12z"/>
<path d="M3182 1613 c-19 -8 -4 -22 18 -16 11 3 17 9 14 14 -6 10 -12 10 -32
2z"/>
<path d="M2959 1600 c-16 -10 7 -23 46 -26 43 -2 45 -3 43 -16 -2 -10 23 -13
100 -13 61 0 102 4 102 10 -1 6 -31 9 -77 7 -54 -2 -80 1 -92 12 -29 25 -98
40 -122 26z"/>
<path d="M3555 1584 c-11 -17 -13 -25 -4 -22 16 5 44 48 31 48 -5 0 -17 -12
-27 -26z"/>
<path d="M3764 1586 c-9 -15 -14 -29 -12 -32 3 -2 13 7 22 22 10 14 15 28 13
31 -3 2 -13 -7 -23 -21z"/>
<path d="M3614 1563 c-40 -37 -136 -154 -131 -159 6 -7 28 15 106 105 51 59
66 91 25 54z"/>
<path d="M3833 1568 c-24 -32 -24 -41 0 -19 15 14 27 26 27 28 0 8 -19 2 -27
-9z"/>
<path d="M3925 1570 c-4 -6 -3 -16 3 -22 6 -6 12 -6 17 2 4 6 3 16 -3 22 -6 6
-12 6 -17 -2z"/>
<path d="M3471 1546 c-8 -9 -11 -19 -7 -23 9 -9 29 13 24 27 -2 8 -8 7 -17 -4z"/>
<path d="M3887 1523 c-11 -13 -17 -27 -14 -30 3 -2 13 7 23 21 22 34 15 42 -9
9z"/>
<path d="M3489 1504 c-27 -28 -30 -35 -15 -32 11 1 28 18 39 36 24 41 19 40
-24 -4z"/>
<path d="M3850 1460 c-17 -31 -8 -42 13 -15 9 14 13 26 8 30 -6 3 -15 -4 -21
-15z"/>
<path d="M2996 1431 c-7 -10 43 -25 52 -16 7 7 -18 25 -35 25 -6 0 -14 -4 -17
-9z"/>
<path d="M3733 1429 c-7 -9 -9 -20 -3 -29 12 -19 22 -7 18 21 -2 19 -5 20 -15
8z"/>
<path d="M3064 1418 c-3 -4 1 -8 8 -9 7 0 39 -2 71 -3 62 -3 80 -12 57 -27
-14 -9 -50 -8 -182 7 -70 8 -78 -8 -11 -23 55 -13 247 -9 283 6 l25 10 -26 0
c-32 1 -42 10 -28 28 6 7 8 13 3 14 -78 5 -196 4 -200 -3z"/>
<path d="M3780 1378 c-27 -44 -25 -50 8 -31 16 9 28 25 28 39 2 33 -13 30 -36
-8z"/>
<path d="M2970 1328 c0 -5 3 -8 8 -9 4 0 16 -3 27 -5 61 -14 366 -2 350 14 -8
9 -385 8 -385 0z"/>
<path d="M3255 1288 c-14 -3 -91 -6 -172 -5 -106 1 -148 -2 -151 -11 -5 -17
57 -19 243 -9 138 9 185 16 185 28 0 9 -66 8 -105 -3z"/>
<path d="M3379 1255 c-3 -2 -64 -7 -136 -11 -72 -3 -152 -7 -179 -9 -27 -2
-71 -3 -99 -4 -37 -1 -46 -4 -35 -11 17 -12 317 -11 395 2 77 12 96 18 90 28
-6 10 -28 13 -36 5z"/>
<path d="M3125 6260 c-7 -11 30 -19 45 -10 7 5 2 9 -14 12 -15 3 -29 2 -31 -2z"/>
<path d="M3340 6230 c0 -5 17 -10 38 -11 20 -1 48 -2 62 -4 67 -7 120 -8 125
-3 6 6 -56 15 -162 24 -40 3 -63 1 -63 -6z"/>
<path d="M3691 6190 c8 -5 38 -12 65 -15 27 -4 64 -10 83 -15 19 -5 37 -7 40
-5 8 9 -6 15 -50 21 -24 3 -62 10 -84 15 -22 5 -47 8 -55 8 -13 0 -13 -1 1 -9z"/>
<path d="M3354 6161 c5 -8 86 -4 95 5 2 2 -19 4 -48 4 -29 0 -50 -4 -47 -9z"/>
<path d="M3500 6156 c0 -2 13 -6 29 -8 17 -2 28 -1 25 4 -5 8 -54 12 -54 4z"/>
<path d="M4000 6130 c20 -13 43 -13 35 0 -3 6 -16 10 -28 10 -18 0 -19 -2 -7
-10z"/>
<path d="M3725 6119 c-5 -7 29 -19 58 -19 10 0 16 4 13 9 -7 11 -65 20 -71 10z"/>
<path d="M3835 6100 c-3 -4 5 -10 18 -14 35 -9 57 -7 57 6 0 6 -3 9 -6 6 -3
-4 -19 -2 -35 2 -16 5 -31 5 -34 0z"/>
<path d="M3400 6082 c0 -11 43 -19 140 -26 l65 -5 -55 14 c-78 21 -150 29
-150 17z"/>
<path d="M2570 6066 l-35 -10 34 -4 c18 -2 38 1 43 6 16 16 -5 20 -42 8z"/>
<path d="M2450 6040 c-12 -8 -10 -10 10 -10 14 0 32 5 40 10 12 8 10 10 -10
10 -14 0 -32 -5 -40 -10z"/>
<path d="M3820 6000 c0 -5 12 -10 26 -10 14 0 23 4 19 10 -3 6 -15 10 -26 10
-10 0 -19 -4 -19 -10z"/>
<path d="M2728 5973 c-10 -2 -18 -9 -18 -13 0 -6 11 -5 26 0 14 6 29 8 34 5 5
-3 11 -1 15 5 6 10 -24 12 -57 3z"/>
<path d="M3590 5971 c0 -5 33 -14 73 -21 39 -6 93 -17 120 -25 26 -7 47 -9 47
-4 0 10 -78 34 -159 49 -66 12 -81 13 -81 1z"/>
<path d="M2353 5961 c-24 -4 -46 -10 -49 -14 -8 -8 61 0 101 12 35 11 9 12
-52 2z"/>
<path d="M2650 5909 c-74 -15 -146 -31 -160 -33 -50 -11 -401 -114 -407 -120
-15 -15 8 -16 43 -2 95 36 509 140 602 151 76 9 102 16 102 26 0 13 -30 10
-180 -22z"/>
<path d="M3880 5902 c0 -11 49 -26 58 -17 8 7 0 12 -31 20 -16 4 -27 3 -27 -3z"/>
<path d="M2070 5820 c-8 -5 -11 -12 -7 -16 4 -4 13 -2 19 4 15 15 7 24 -12 12z"/>
<path d="M1754 5770 c-12 -5 -25 -13 -28 -19 -8 -12 53 6 69 20 12 11 -13 11
-41 -1z"/>
<path d="M1822 5725 c-104 -30 -163 -55 -102 -42 125 26 176 40 208 56 52 28
24 24 -106 -14z"/>
<path d="M4029 5700 c-15 -10 15 -27 62 -35 19 -3 52 -10 74 -15 47 -10 71 3
34 20 -40 17 -157 38 -170 30z"/>
<path d="M4085 5630 c-3 -5 -2 -11 3 -14 13 -8 209 -56 229 -56 17 1 17 1 0
11 -31 18 -154 58 -191 63 -20 2 -38 1 -41 -4z"/>
<path d="M4370 5632 c0 -8 69 -63 194 -154 57 -43 57 -43 50 -25 -2 6 -35 35
-71 62 -37 28 -87 67 -112 88 -45 37 -61 44 -61 29z"/>
<path d="M4250 5520 c0 -14 40 -28 145 -50 50 -11 101 -22 115 -26 23 -5 24
-5 7 9 -10 9 -42 21 -70 27 -29 7 -81 21 -116 31 -73 22 -81 23 -81 9z"/>
<path d="M1365 5451 c-74 -26 -394 -188 -432 -218 -34 -27 -42 -43 -22 -43 6
0 41 20 78 44 74 49 384 206 406 206 13 0 31 18 23 25 -2 2 -26 -5 -53 -14z"/>
<path d="M4345 5430 c-10 -16 -7 -17 50 -23 28 -3 62 -8 78 -12 42 -11 32 10
-10 23 -70 20 -110 24 -118 12z"/>
<path d="M4630 5422 c0 -10 22 -32 32 -32 5 0 3 9 -4 20 -13 20 -28 27 -28 12z"/>
<path d="M4546 5406 c6 -15 34 -30 41 -22 5 5 -26 36 -37 36 -5 0 -7 -6 -4
-14z"/>
<path d="M4753 5300 c8 -11 28 -35 44 -53 16 -18 46 -57 66 -87 58 -88 182
-243 197 -248 9 -3 3 10 -13 29 -15 19 -57 77 -94 129 -100 142 -188 249 -206
250 -5 0 -2 -9 6 -20z"/>
<path d="M5080 5219 c0 -14 6 -34 14 -45 14 -18 14 -16 10 16 -7 43 -24 64
-24 29z"/>
<path d="M5005 5183 c12 -48 38 -99 42 -83 4 16 -33 110 -44 110 -3 0 -2 -12
2 -27z"/>
<path d="M5180 5074 c0 -3 13 -34 28 -68 16 -33 46 -114 66 -178 21 -65 42
-118 46 -118 4 0 1 23 -8 51 -12 36 -13 52 -5 57 14 9 -8 78 -30 95 -9 7 -32
47 -51 90 -31 67 -46 91 -46 71z"/>
<path d="M5066 5010 c4 -19 15 -51 25 -72 10 -20 35 -81 55 -135 20 -54 41
-102 47 -108 7 -7 8 -4 3 10 -4 11 -22 63 -41 115 -43 124 -98 240 -89 190z"/>
<path d="M5190 4891 c0 -19 52 -162 57 -157 4 4 -45 157 -53 165 -2 2 -4 -1
-4 -8z"/>
<path d="M5020 4882 c0 -4 5 -13 12 -20 16 -16 28 -15 28 2 0 8 -7 17 -16 20
-21 8 -24 8 -24 -2z"/>
<path d="M5270 4667 c0 -6 9 -44 21 -82 11 -39 21 -74 23 -80 9 -37 19 -55 32
-55 18 0 18 10 0 35 -7 11 -25 59 -40 108 -26 82 -36 104 -36 74z"/>
<path d="M5331 4665 c-1 -29 45 -185 58 -198 17 -17 24 0 13 30 -6 15 -25 64
-41 108 -16 44 -30 71 -30 60z"/>
<path d="M5387 4674 c-13 -14 -7 -32 14 -37 16 -4 20 -1 17 15 -3 22 -19 33
-31 22z"/>
<path d="M5208 4625 c6 -35 24 -44 20 -9 -2 15 -8 29 -14 31 -7 2 -10 -6 -6
-22z"/>
<path d="M5415 4607 c-11 -28 3 -108 22 -122 14 -11 56 -113 70 -172 7 -28 23
-30 23 -3 0 19 -36 127 -83 250 -19 49 -27 61 -32 47z"/>
<path d="M5546 4328 c3 -13 20 -50 36 -82 17 -33 32 -71 34 -85 8 -50 27 -112
36 -117 39 -24 13 77 -57 224 -37 76 -65 111 -49 60z"/>
<path d="M5537 3818 c11 -82 29 -152 40 -155 15 -5 10 38 -13 125 -18 66 -35
84 -27 30z"/>
<path d="M5570 3611 c0 -24 26 -48 32 -29 7 21 -3 48 -18 48 -8 0 -14 -8 -14
-19z"/>
<path d="M5567 3474 c-11 -11 -8 -52 3 -59 6 -3 10 -17 10 -30 0 -27 12 -38
33 -29 21 8 29 44 11 51 -8 3 -23 21 -32 40 -10 18 -21 31 -25 27z"/>
<path d="M5659 3303 c-1 -5 -3 -21 -4 -38 -2 -16 -6 -51 -10 -77 -14 -115 -16
-168 -6 -168 6 0 11 3 12 8 0 4 2 18 4 32 9 70 17 250 11 250 -3 0 -7 -3 -7
-7z"/>
<path d="M5563 3285 c-6 -11 -14 -81 -17 -155 -3 -74 -9 -190 -12 -257 -4 -87
-3 -123 5 -123 6 0 11 3 12 8 3 21 7 92 13 232 3 85 10 180 14 210 4 30 5 66
2 80 -6 24 -7 24 -17 5z"/>
<path d="M5619 2879 c0 -8 -2 -25 -4 -39 -1 -14 -6 -56 -9 -95 -17 -175 -21
-207 -36 -267 -26 -106 -30 -142 -15 -146 13 -4 19 27 44 208 33 244 41 334
28 347 -4 3 -7 0 -8 -8z"/>
<path d="M5526 2643 c-3 -10 -10 -49 -16 -88 -18 -117 -57 -275 -90 -370 -17
-49 -53 -154 -80 -232 -51 -148 -66 -183 -109 -248 -31 -47 -76 -154 -68 -161
3 -3 16 14 28 38 12 23 35 61 50 83 16 22 49 96 73 165 52 150 106 280 116
280 4 0 -2 -31 -13 -70 -34 -115 1 -105 38 11 18 58 18 62 2 74 -23 17 -22 39
13 168 32 121 58 244 67 320 5 47 -1 63 -11 30z"/>
<path d="M5514 2246 c-8 -48 1 -68 15 -33 14 35 14 67 1 67 -5 0 -12 -16 -16
-34z"/>
<path d="M5722 1938 c-10 -24 -31 -76 -46 -115 -15 -40 -32 -75 -37 -79 -5 -3
-9 -14 -9 -25 0 -32 16 -14 50 59 30 62 80 186 80 197 0 3 -4 5 -10 5 -5 0
-17 -19 -28 -42z"/>
<path d="M5337 1816 c-39 -78 -45 -100 -24 -94 13 5 62 101 73 143 12 49 -12
24 -49 -49z"/>
<path d="M5401 1785 c-31 -72 -21 -81 13 -12 28 57 30 67 19 67 -5 0 -19 -25
-32 -55z"/>
<path d="M5340 1671 c-7 -15 -7 -21 0 -21 12 0 25 28 17 36 -3 3 -10 -4 -17
-15z"/>
<path d="M5268 1653 c-31 -36 -48 -83 -30 -83 15 0 63 83 54 92 -5 5 -15 1
-24 -9z"/>
<path d="M5424 1374 c-53 -82 -123 -186 -155 -231 -32 -46 -55 -83 -50 -83 5
0 40 44 78 98 163 228 240 348 230 359 -3 3 -49 -62 -103 -143z"/>
<path d="M5294 1317 c-17 -18 -139 -196 -168 -244 -4 -7 -2 -13 3 -13 6 0 22
17 36 38 14 20 48 69 76 107 76 105 81 114 77 124 -1 6 -12 0 -24 -12z"/>
<path d="M5028 1080 c-31 -47 -77 -112 -102 -144 -45 -58 -54 -76 -38 -76 21
1 204 266 200 290 -2 8 -27 -21 -60 -70z"/>
<path d="M5095 1022 c-18 -12 -88 -102 -84 -107 8 -7 24 9 63 63 37 52 41 59
21 44z"/>
<path d="M5163 998 c-20 -26 -26 -41 -15 -34 12 7 36 46 29 46 -3 0 -9 -6 -14
-12z"/>
<path d="M4813 935 c-38 -46 -61 -90 -44 -83 11 4 91 110 91 120 0 15 -9 8
-47 -37z"/>
<path d="M4642 625 c-52 -33 -77 -55 -68 -58 12 -5 107 49 171 97 l20 15 -20
0 c-11 -1 -57 -25 -103 -54z"/>
<path d="M4100 562 c-19 -10 -82 -47 -140 -83 -58 -35 -157 -88 -220 -118
-118 -56 -158 -81 -130 -81 21 0 267 121 337 166 32 20 83 51 113 67 56 30
102 67 84 67 -5 0 -25 -8 -44 -18z"/>
<path d="M4085 459 c-33 -22 -95 -61 -137 -86 -93 -54 -114 -77 -31 -34 101
52 236 136 241 149 6 20 -9 13 -73 -29z"/>
<path d="M2066 470 c17 -17 67 -23 62 -8 -3 7 -20 14 -39 16 -25 3 -31 0 -23
-8z"/>
<path d="M4495 438 c-33 -17 -55 -33 -48 -35 15 -5 113 44 113 57 0 13 5 14
-65 -22z"/>
<path d="M4197 417 c-32 -18 -55 -36 -51 -40 8 -8 124 54 124 65 0 13 -13 9
-73 -25z"/>
<path d="M4275 355 c-22 -13 -33 -24 -25 -25 16 0 80 36 80 45 0 10 -16 4 -55
-20z"/>
<path d="M4095 350 c-36 -14 -120 -70 -106 -70 18 0 131 63 131 72 0 9 1 9
-25 -2z"/>
<path d="M3728 266 c-28 -21 -21 -28 12 -11 17 9 30 18 30 20 0 10 -25 4 -42
-9z"/>
<path d="M3926 255 c-22 -17 -17 -29 7 -19 16 6 32 34 19 34 -4 0 -16 -7 -26
-15z"/>
<path d="M3583 212 c-38 -14 -59 -42 -33 -42 11 0 72 30 100 49 24 17 -17 12
-67 -7z"/>
<path d="M3815 196 c-16 -7 -69 -25 -118 -40 -48 -15 -85 -31 -82 -36 5 -8 19
-5 105 23 86 29 121 44 132 55 16 16 0 15 -37 -2z"/>
<path d="M2315 181 c6 -5 28 -13 50 -17 22 -3 43 -8 46 -10 7 -4 29 -7 159
-23 192 -24 520 -38 520 -22 0 6 -17 11 -37 12 -21 1 -58 2 -83 4 -25 2 -110
6 -190 9 -145 7 -259 20 -350 42 -56 13 -125 16 -115 5z"/>
<path d="M2372 113 c3 -18 21 -25 143 -61 77 -23 179 -34 210 -22 l20 7 -20 6
c-11 3 -38 8 -60 12 -47 7 -81 13 -112 20 -109 24 -153 38 -159 46 -9 16 -26
10 -22 -8z"/>
</g>
</svg>
